<svg xmlns="http://www.w3.org/2000/svg" viewBox="0 0 1041.01 201.05"><defs><style>.cls-1{fill:#fff;}</style></defs><title>Recurso 1</title><g id="Capa_2" data-name="Capa 2"><g id="Capa_1-2" data-name="Capa 1"><rect class="cls-1" width="11.03" height="201.05"/><polygon class="cls-1" points="131.37 11.04 131.37 0.01 23.85 0.01 23.85 201.05 34.88 201.05 34.88 117.43 120.65 117.43 120.65 106.4 34.88 106.4 34.88 94.92 120.65 94.92 120.65 83.89 34.88 83.89 34.88 33.02 131.37 33.02 131.37 21.98 34.88 21.98 34.88 11.04 131.37 11.04"/><polygon class="cls-1" points="309.14 0 309.14 23.25 202.8 23.25 202.8 85.07 295.81 85.07 295.81 108.89 202.8 108.89 202.8 177.8 309.14 177.8 309.14 201.05 177.56 201.05 177.56 0 309.14 0"/><path class="cls-1" d="M461.69,144.34H374.92l-20.13,56.71H329L403.56,0h30.06l74.86,201.05H482.11Zm-8.79-23.82L418,23.54l-34.59,97Z"/><path class="cls-1" d="M618.78,0c40.84,0,66.93,22.12,66.93,58.7,0,25.52-14.75,46.22-42.82,54.44L686,201.05H657.63L617.37,117.4H565.19v83.65H540V0Zm40.84,58.7c0-25.52-17-35.45-40.84-35.45H565.19V93.86h53.59c23.82,0,40.84-9.64,40.84-35.16"/><polygon class="cls-1" points="705.55 23.54 705.55 0 859.25 0 859.25 23.54 795.16 23.54 795.16 201.05 769.64 201.05 769.64 23.54 705.55 23.54"/><polygon class="cls-1" points="919.36 0 919.36 84.5 1015.77 84.5 1015.77 0 1041.01 0 1041.01 201.05 1015.77 201.05 1015.77 108.89 919.36 108.89 919.36 201.05 894.12 201.05 894.12 0 919.36 0"/></g></g></svg>