<svg xmlns="http://www.w3.org/2000/svg" viewBox="0 0 1035.05 208.99"><defs><style>.cls-1{fill:#fff;}</style></defs><title>Recurso 1</title><g id="Capa_2" data-name="Capa 2"><g id="Capa_1-2" data-name="Capa 1"><rect class="cls-1" y="3.97" width="11.03" height="201.05"/><polygon class="cls-1" points="131.37 15.01 131.37 3.97 23.85 3.97 23.85 205.02 34.88 205.02 34.88 121.4 120.64 121.4 120.64 110.37 34.88 110.37 34.88 98.89 120.64 98.89 120.64 87.86 34.88 87.86 34.88 36.98 131.37 36.98 131.37 25.95 34.88 25.95 34.88 15.01 131.37 15.01"/><path class="cls-1" d="M157.15,144.9v-3.12H183v3.41c0,25.52,12.48,40.26,33.75,40.26,22.68,0,31.76-15.31,31.76-36.58V4h25.23v144.9c0,35.45-22.4,60.12-57.56,60.12-36,0-59-24.67-59-64.09"/><polygon class="cls-1" points="458.29 3.97 458.29 27.22 351.95 27.22 351.95 89.04 444.96 89.04 444.96 112.86 351.95 112.86 351.95 181.77 458.29 181.77 458.29 205.02 326.71 205.02 326.71 3.97 458.29 3.97"/><path class="cls-1" d="M610.84,148.31H524.07L503.94,205H478.13L552.71,4h30.06L657.63,205H631.26Zm-8.79-23.82-34.88-97-34.59,97Z"/><polygon class="cls-1" points="840.53 3.97 840.53 205.02 812.17 205.02 713.49 34.03 713.49 205.02 689.1 205.02 689.1 3.97 722.28 3.97 816.14 166.46 816.14 3.97 840.53 3.97"/><path class="cls-1" d="M881.92,141.5h26.37c.57,26.66,23,44.24,52.75,44.24,27.5,0,47.64-13.05,47.64-35.73,0-15.31-10.21-28.36-33.75-32l-31.76-4.83c-30.62-4.53-53.59-21.26-53.59-53.31C889.58,25.24,923,0,959.9,0c39.14,0,70.33,25,71.46,62.67H1005c-1.42-24.39-18.15-39.42-45.37-39.42-25,0-44,13.61-44,35.45,0,18.71,15,26.65,30.06,28.92l33.46,5.11c33.46,5.1,55.86,25.52,55.86,57.28,0,36.29-34,59-74,59-45.37,0-79.12-26.94-79.12-67.49"/></g></g></svg>