<svg xmlns="http://www.w3.org/2000/svg" viewBox="0 0 130.94 130.94"><defs><style>.cls-1{fill:#fff;}</style></defs><title>Recurso 1</title><g id="Capa_2" data-name="Capa 2"><g id="Capa_1-2" data-name="Capa 1"><path class="cls-1" d="M49.61,45.79c8,0,13.32,4.22,13.32,11.72S57.66,69.22,49.61,69.22H40.28V85.15H35.34V45.79Zm8.22,11.72c0-4.83-3.06-7.22-8.33-7.22H40.28V64.72H49.5c5.27,0,8.33-2.39,8.33-7.21"/><polygon class="cls-1" points="65.51 50.4 65.51 45.79 95.6 45.79 95.6 50.4 83.06 50.4 83.06 85.15 78.06 85.15 78.06 50.4 65.51 50.4"/><path class="cls-1" d="M65.47,130.94A65.46,65.46,0,0,1,19.18,19.18a65.47,65.47,0,0,1,92.59,92.59,65.08,65.08,0,0,1-46.3,19.17m0-127.34a61.87,61.87,0,1,0,61.87,61.87A61.94,61.94,0,0,0,65.47,3.6"/></g></g></svg>