<svg xmlns="http://www.w3.org/2000/svg" viewBox="0 0 130.94 130.94"><defs><style>.cls-1{fill:#fff;}</style></defs><title>Recurso 1</title><g id="Capa_2" data-name="Capa 2"><g id="Capa_1-2" data-name="Capa 1"><path class="cls-1" d="M65.47,106.63a41.16,41.16,0,1,1,41.16-41.16,41.21,41.21,0,0,1-41.16,41.16m0-78.71A37.56,37.56,0,1,0,103,65.47,37.59,37.59,0,0,0,65.47,27.92"/><path class="cls-1" d="M65.47,100.08a34.61,34.61,0,1,1,34.6-34.61,34.65,34.65,0,0,1-34.6,34.61m0-65.61a31,31,0,1,0,31,31,31,31,0,0,0-31-31"/><path class="cls-1" d="M65.47,93.51a28,28,0,1,1,28-28,28.06,28.06,0,0,1-28,28m0-52.47A24.44,24.44,0,1,0,89.91,65.47,24.47,24.47,0,0,0,65.47,41"/><path class="cls-1" d="M65.47,86.94A21.47,21.47,0,1,1,86.94,65.47,21.49,21.49,0,0,1,65.47,86.94m0-39.34A17.87,17.87,0,1,0,83.34,65.47,17.89,17.89,0,0,0,65.47,47.6"/><path class="cls-1" d="M65.47,80.39A14.92,14.92,0,1,1,80.39,65.47,14.93,14.93,0,0,1,65.47,80.39m0-26.23A11.32,11.32,0,1,0,76.79,65.47,11.32,11.32,0,0,0,65.47,54.16"/><path class="cls-1" d="M65.47,73.83a8.36,8.36,0,1,1,8.36-8.36,8.37,8.37,0,0,1-8.36,8.36m0-13.12a4.76,4.76,0,1,0,4.76,4.76,4.77,4.77,0,0,0-4.76-4.76"/><path class="cls-1" d="M65.47,130.94A65.46,65.46,0,0,1,19.18,19.18a65.47,65.47,0,0,1,92.59,92.59,65.08,65.08,0,0,1-46.3,19.17m0-127.34a61.87,61.87,0,1,0,61.87,61.87A61.94,61.94,0,0,0,65.47,3.6"/></g></g></svg>