<svg xmlns="http://www.w3.org/2000/svg" viewBox="0 0 128 128"><defs><style>.cls-1{fill:#fff;}</style></defs><title>Recurso 8</title><g id="Capa_2" data-name="Capa 2"><g id="Capa_1-2" data-name="Capa 1"><path class="cls-1" d="M64,3.52A60.48,60.48,0,1,0,124.48,64,60.55,60.55,0,0,0,64,3.52M64,128A64,64,0,0,1,18.74,18.75a64,64,0,1,1,90.51,90.51A63.59,63.59,0,0,1,64,128"/><path class="cls-1" d="M64,95.9V92.38H80.29c1.29,0,2.23-.26,2.67-.93s.14-1.56-.51-2.62L72,72.26l3-1.88,10.76,17c1.57,2.7,1.34,4.72.28,6a6.49,6.49,0,0,1-5.54,2.44H64Z"/><path class="cls-1" d="M91.58,96.19A5.85,5.85,0,0,1,86.81,99H41.22a5.88,5.88,0,0,1-4.63-2.53,6.1,6.1,0,0,1-.83-5.32c.38-.88,3.6-6.13,4.11-6.84l15-23.7V35.34H73.18V60.57L88,84.09l0,.07c.36.51,3.62,5.73,4,6.41a6.12,6.12,0,0,1-.46,5.62M50.28,29H77.73v2.78H50.28Zm45,60.11h0c-.31-.71-3.81-6.24-4.28-7L76.7,59.55V35.34h4.55V25.52H46.76v9.82h4.55V59.55L37,82.29A84,84,0,0,0,32.42,90a9.6,9.6,0,0,0,1.29,8.44,9.4,9.4,0,0,0,7.36,4H87a9.32,9.32,0,0,0,7.59-4.41,9.64,9.64,0,0,0,.7-8.91"/></g></g></svg>