<svg xmlns="http://www.w3.org/2000/svg" viewBox="0 0 128 128"><defs><style>.cls-1{fill:#fff;}</style></defs><title>Recurso 6</title><g id="Capa_2" data-name="Capa 2"><g id="Capa_1-2" data-name="Capa 1"><path class="cls-1" d="M64,3.52A60.48,60.48,0,1,0,124.48,64,60.55,60.55,0,0,0,64,3.52M64,128A64,64,0,0,1,18.74,18.75a64,64,0,1,1,90.51,90.51A63.59,63.59,0,0,1,64,128"/><path class="cls-1" d="M85,87.61A25.43,25.43,0,0,1,64.1,98.8h-.2A25.43,25.43,0,0,1,43,87.61c-4.56-8.22-4.29-17.4.82-28.08,4.58-9.57,12.37-19,19.24-27.3l.91-1.1.91,1.1C71.78,40.54,79.57,50,84.15,59.53c5.11,10.68,5.38,19.86.82,28.08M67.63,30l-2.32-2.82L64,25.61l-1.31,1.6L60.37,30C46.14,47.24,28.43,68.65,40,89.35l.08.12a29.2,29.2,0,0,0,23.73,12.8h.4a29.2,29.2,0,0,0,23.73-12.8l.08-.12C99.57,68.65,81.86,47.24,67.63,30"/><path class="cls-1" d="M64,93.84V90.32c5.9,0,10.65-1.85,13.41-5.21,2.51-3.06,3.26-7.25,2.22-12.45L83.07,72c1.24,6.19.22,11.51-2.95,15.37C76.69,91.53,71,93.84,64,93.84"/></g></g></svg>