<svg xmlns="http://www.w3.org/2000/svg" viewBox="0 0 134.37 142.54"><defs><style>.cls-1{fill:#fff;}</style></defs><title>Recurso 1</title><g id="Capa_2" data-name="Capa 2"><g id="Capa_1-2" data-name="Capa 1"><path class="cls-1" d="M92.19,52.05l-.25-.26c-.26-.28-.53-.55-.81-.82A36.37,36.37,0,0,0,81.29,44l8,8.62-3,2.79L73.09,41.24a37.27,37.27,0,0,0-4.8-.7l15.84,17-2.61,2.44L63.35,40.48a36.49,36.49,0,0,0-3.77.4L79.31,62l-3,2.76L55,41.91c-1.06.31-2.1.67-3.14,1.07L74.14,66.83l-3.08,2.88L47.85,44.86c-.9.49-1.78,1-2.65,1.6L68.85,71.78,65.3,75.09l-24-25.69-1,.88q-.63.59-1.23,1.2l3.58,3.84L42.27,96.6l-4.1,3.82L38.59,52a37.17,37.17,0,0,0-3.06,3.73l-.37,42.1A37.15,37.15,0,0,0,37.57,101l.59.67.42.46c.34.37.7.73,1.05,1.08l53.57-50c-.33-.38-.66-.76-1-1.13M45.7,58.53l4.12,4.41-.39,27-4.1,3.83Zm7.1,7.6,4.11,4.4L56.62,83.2,52.5,87Zm6.91,14.18.15-6.61,3.23,3.45Z"/><path class="cls-1" d="M95.43,56,42.34,105.61c.8.66,1.62,1.27,2.47,1.84L97.09,58.63c-.52-.88-1.07-1.74-1.66-2.59"/><path class="cls-1" d="M99,62.33,48.37,109.58c1,.5,2,1,3,1.38l48.82-45.59c-.34-1-.74-2-1.18-3"/><path class="cls-1" d="M101.33,69.82,55.68,112.44a34.52,34.52,0,0,0,3.6.79l42.59-39.77c-.12-1.22-.3-2.43-.54-3.64"/><path class="cls-1" d="M64.58,113.73a35.85,35.85,0,0,0,4.63-.18L101.5,83.4a37.71,37.71,0,0,0,.5-4.62Z"/><path class="cls-1" d="M90.42,103.89a36.56,36.56,0,0,0,8.39-11.7L78.17,111.46a36.63,36.63,0,0,0,12.25-7.57"/><path class="cls-1" d="M31,89.94l.44-26.82A36.89,36.89,0,0,0,31,89.94"/><path class="cls-1" d="M61.49,0,58.93,2.53l9,9.2c-.83,0-1.65,0-2.48-.05A64.37,64.37,0,0,0,19.16,30.85,64.86,64.86,0,0,0,0,77.11,65.53,65.53,0,0,0,3,96.76l3.46-1.09a61.83,61.83,0,0,1,59-80.39c.81,0,1.62,0,2.43.05L59,24.1l2.48,2.54,13.33-13Z"/><path class="cls-1" d="M133.43,107.92l-12.08,3.18A65.49,65.49,0,0,0,80.07,13.32l-.81,3.52A61.8,61.8,0,0,1,118,109.68L114.56,97l-3.46.89L116,116.25l18.39-4.88Z"/><path class="cls-1" d="M111.45,118.36A61.78,61.78,0,0,1,10.63,105.71l12.67,3.5,1-3.44L6,100.68.86,119,4.3,120l3.38-12a65.46,65.46,0,0,0,104,15.46c.85-.85,1.67-1.72,2.46-2.6Z"/></g></g></svg>