<svg xmlns="http://www.w3.org/2000/svg" viewBox="0 0 187.66 132.15"><defs><style>.cls-1{fill:#06222e;}</style></defs><title>Recurso 2</title><g id="Capa_2" data-name="Capa 2"><g id="Capa_1-2" data-name="Capa 1"><path class="cls-1" d="M45.7,132.15c-12,0-21.69-3.67-29.67-11.21l0,0C2.62,108.08,0,91.05,0,66S2.62,23.9,16,11.05C23.89,3.61,33.59,0,45.7,0S67.51,3.61,75.37,11c13.41,12.87,16,29.89,16,55s-2.62,42.09-16,54.93c-8,7.56-17.71,11.23-29.69,11.23M20.94,115.76C27.53,122,35.63,125,45.7,125s18.18-3,24.77-9.26C82.06,104.63,84.26,89.68,84.26,66S82.06,27.34,70.45,16.2C64,10.11,55.9,7.14,45.7,7.14s-18.3,3-24.77,9.08C9.34,27.34,7.14,42.29,7.14,66s2.2,38.63,13.8,49.77m24.76,2.86c-7.33,0-14.15-2.35-18.69-6.47C17,103,15.43,91.05,15.43,66c0-17.41,0-35.42,11.56-46,4.56-4.13,11.37-6.49,18.71-6.49S59.85,15.88,64.39,20C76,30.57,76,48.58,76,66c0,25-1.61,37-11.56,46.14l0,0c-4.54,4.12-11.36,6.47-18.69,6.47m0-98c-5.5,0-10.7,1.73-13.9,4.63-8.57,7.82-9.23,21.8-9.23,40.7,0,25.43,2,34.22,9.25,40.89,3.18,2.88,8.38,4.6,13.88,4.6s10.69-1.72,13.89-4.61c7.26-6.68,9.24-15.48,9.24-40.88,0-18.9-.66-32.88-9.24-40.71-3.19-2.89-8.39-4.62-13.89-4.62"/><path class="cls-1" d="M104.23,110.7v10.48l14.68-15.78,39.52-42.52c7.89-8.4,11.89-17,11.89-25.67,0-14.5-9.57-23.86-24.37-23.86-15.75,0-25.25,9.38-26.49,25.82,0,.07-.21,5.63-.1,7.33h7.09V42.93C126.45,28,133,20.49,146,20.49c10.79,0,17.23,6.25,17.23,16.72,0,6.75-3.35,13.75-10,20.8Z"/><path class="cls-1" d="M120.91,122.58l6.93-6.73h59.82v-7.14H135.23l35-37.67c10.37-11,15.19-21.78,15.19-34,0-22.15-15.78-37-39.28-37-12.37,0-22.83,3.85-30.26,11.14-7.72,7.57-11.8,18.56-11.8,31.79V46.5h7.15c-.16-1.7.11-7.27.12-7.35,1.41-20.1,14.19-32,34.79-32,19.53,0,32.15,11.73,32.15,29.89,0,10.43-4.09,19.41-13.27,29.13l-37.34,40.22,0,0-20,20.06h0l-3.35,3.29h83.43v-7.14Z"/></g></g></svg>