<svg xmlns="http://www.w3.org/2000/svg" viewBox="0 0 189.78 134.57"><defs><style>.cls-1{fill:#06222e;}</style></defs><title>Recurso 3</title><g id="Capa_2" data-name="Capa 2"><g id="Capa_1-2" data-name="Capa 1"><path class="cls-1" d="M45.7,134.57c-12,0-21.69-3.66-29.67-11.2l0,0C2.62,110.5,0,93.48,0,68.41S2.62,26.32,16,13.47c7.88-7.44,17.58-11,29.69-11S67.51,6,75.37,13.46c13.41,12.86,16,29.89,16,55s-2.62,42.09-16,54.94c-8,7.56-17.71,11.22-29.69,11.22M20.94,118.19c6.59,6.22,14.69,9.24,24.76,9.24s18.18-3,24.77-9.25c11.59-11.12,13.79-26.07,13.79-49.77s-2.2-38.64-13.81-49.79C64,12.53,55.9,9.56,45.7,9.56s-18.3,3-24.77,9.09C9.34,29.77,7.14,44.72,7.14,68.41s2.2,38.64,13.8,49.78m24.76,2.86c-7.33,0-14.15-2.36-18.69-6.47-10-9.16-11.58-21.11-11.58-46.17,0-17.41,0-35.41,11.56-46C31.55,18.31,38.36,16,45.7,16s14.15,2.36,18.69,6.47C76,33,76,51,76,68.41c0,25-1.61,37-11.56,46.15l0,0c-4.54,4.11-11.36,6.47-18.69,6.47m0-98c-5.5,0-10.7,1.73-13.9,4.62-8.57,7.83-9.23,21.81-9.23,40.7,0,25.44,2,34.23,9.25,40.89,3.18,2.88,8.38,4.61,13.88,4.61s10.69-1.73,13.89-4.62c7.26-6.68,9.24-15.47,9.24-40.88,0-18.89-.66-32.87-9.24-40.71-3.19-2.88-8.39-4.61-13.89-4.61"/><path class="cls-1" d="M146.51,13.35c-14.9,0-25.2,8.31-27.17,21.49a55.34,55.34,0,0,0-.55,7.49h7.27l.09-3.47c.3-11.5,7.91-18.37,20.36-18.37,10.43,0,17.83,6.2,18.41,15.22,0,.43,0,.86,0,1.3-.08,10.27-7.8,16.39-20.7,16.39H132.19v7.14h12.07a43.12,43.12,0,0,0,4.76-.26c13.51-1,23.08-10,23.08-22.83,0-.1,0-.19,0-.28s0-.21,0-.31c0-13.62-10.76-23.51-25.59-23.51"/><path class="cls-1" d="M174.8,65l.09-.07c8-6.69,12.28-16.21,12.28-27.51v-.19h0c0-.14,0-.27,0-.4,0-11.31-4.23-20.82-12.25-27.51C167.72,3.32,157.75,0,146.86,0c-25.14,0-42,15.16-42.93,38.62l-.15,3.71h7a34.42,34.42,0,0,1,.62-7.52c2.42-17.18,15.66-27.67,35.43-27.67,16.52,0,33.18,9.19,33.18,29.72,0,.15,0,.3,0,.45h0v.14c0,19.65-15.31,28.91-31.11,29.66H132.19v7.14h12.07c21.78,0,23.47,14.38,23.47,18.79,0,11.32-8.4,18.63-21.39,18.63-12.38,0-20.25-7.57-21.06-20.24l-.22-3.34h-7.2a67.75,67.75,0,0,0,.75,7.66c2.42,14.14,13,23.06,27.73,23.06,16.8,0,28.53-10.6,28.53-25.77,0-9.49-4.37-17-11.91-21.39a40.15,40.15,0,0,0,5.15-2.22c10.59,5,14.54,15,14.54,23.61,0,9.36-3.51,17.37-10.14,23.15S156.69,125,146.34,125c-19.29,0-33.16-11.51-35.74-29.09a67.46,67.46,0,0,1-.76-7.84h-6.92l.15,3.7c.45,12,5,22.17,13,29.49,7.83,7.12,18.29,10.88,30.25,10.88,25.58,0,43.44-16.09,43.44-39.12a32.55,32.55,0,0,0-15-28"/></g></g></svg>