<svg xmlns="http://www.w3.org/2000/svg" viewBox="0 0 1192.07 123.93"><defs><style>.cls-1{fill:#fff;}</style></defs><title>Recurso 1</title><g id="Capa_2" data-name="Capa 2"><g id="Capa_1-2" data-name="Capa 1"><polygon class="cls-1" points="75.66 2.22 75.66 16.03 15 16.03 15 54.96 68.92 54.96 68.92 69.11 15 69.11 15 121.68 0 121.68 0 2.22 75.66 2.22"/><polygon class="cls-1" points="195.36 2.22 195.36 16.03 132.17 16.03 132.17 52.77 187.44 52.77 187.44 66.92 132.17 66.92 132.17 107.87 195.36 107.87 195.36 121.68 117.17 121.68 117.17 2.22 195.36 2.22"/><path class="cls-1" d="M285.31,2.22c24.27,0,39.77,13.14,39.77,34.88,0,15.16-8.76,27.46-25.44,32.35l25.61,52.23H308.4L284.47,72h-31v49.7h-15V2.22ZM309.58,37.1c0-15.17-10.11-21.07-24.27-21.07H253.47V58h31.84c14.16,0,24.27-5.73,24.27-20.89"/><path class="cls-1" d="M416.69,2.22c24.26,0,39.76,13.14,39.76,34.88,0,15.16-8.76,27.46-25.44,32.35l25.61,52.23H439.77L415.85,72h-31v49.7h-15V2.22ZM441,37.1C441,21.93,430.84,16,416.69,16H384.84V58h31.85C430.84,58,441,52.26,441,37.1"/><polygon class="cls-1" points="579.4 2.22 579.4 16.03 516.22 16.03 516.22 52.77 571.48 52.77 571.48 66.92 516.22 66.92 516.22 107.87 579.4 107.87 579.4 121.68 501.22 121.68 501.22 2.22 579.4 2.22"/><path class="cls-1" d="M1147.22,110.87c18,0,30-9.38,30-23.34,0-11.17-8.13-19.11-21.74-21.24l-17.85-2.71c-10.2-1.51-27.31-7-27.31-26.7,0-16.72,16.25-30.32,36.22-30.32,10,0,19.24,3.15,26,8.87a30.56,30.56,0,0,1,10.64,19.66s.24,4.2.24,6.66h6.69l-.11-3.37C1189.33,16.14,1171.07,0,1146.58,0c-23.58,0-42.77,16.55-42.77,36.88,0,18,12,30.09,32.89,33.19l17.82,2.7c10.43,1.64,16.18,6.88,16.18,14.76a14.25,14.25,0,0,1-6.22,12.15c-4.22,3-10.19,4.64-17.26,4.64-15.24,0-26.07-8.9-26.35-21.64l-.06-3.21h-6.62a57.07,57.07,0,0,0,.4,6.79c2,14.66,15,24.61,32.63,24.61"/><path class="cls-1" d="M1182.46,63.5c-6-5.9-14.44-9.84-24.55-11.38l-18.8-2.87c-11.65-1.76-14.09-8-14.09-13,0-8.28,6.62-16.63,21.4-16.63,13.42,0,21.51,6.94,22.21,19.05l.18,3.08h6.39a59.85,59.85,0,0,0-.36-6.68c-2.15-13.66-12.77-22-28.42-22-16.46,0-28,9.53-28,23.19,0,10.49,7.17,17.59,19.67,19.48l18.79,2.87c17.9,2.73,28.59,13.54,28.59,28.93,0,19.59-19.26,29.85-38.29,29.85-22.83,0-39.18-12.64-41-31.16,0,0-.34-4.38-.2-6.75h-6.52v3.28a38.44,38.44,0,0,0,13.83,30c8.62,7.2,20.65,11.17,33.88,11.17,11.93,0,23-3.4,31.18-9.58,8.81-6.66,13.67-16.18,13.67-26.82,0-9.48-3.33-17.79-9.61-24"/><rect class="cls-1" x="974.08" y="2.23" width="6.56" height="119.47"/><polygon class="cls-1" points="1065.68 2.23 1059.12 2.23 1059.12 108.25 1051.98 95.89 1051.98 2.23 1045.43 2.23 1045.43 84.54 997.88 2.23 987.77 2.23 987.77 33.44 987.77 121.7 994.33 121.7 994.33 34.63 1044.58 121.7 1052.16 121.7 994.33 21.51 994.33 9.19 1040.71 89.48 1059.33 121.7 1065.68 121.7 1065.68 2.23"/><rect class="cls-1" x="849.9" y="2.23" width="6.56" height="119.47"/><path class="cls-1" d="M933.16,121.7h7.3L915.62,71a38.46,38.46,0,0,0,11.19-6.72c7.39-6.42,11.49-14.94,11.51-25.91S934.39,18.23,927,11.81c-7.21-6.27-17.43-9.58-29.54-9.58H864.07V121.7h6.56V74.17l23.76.12,22.82,47.41h7.24L901.59,74.14A51.39,51.39,0,0,0,909.27,73ZM897.46,8.79c10.51,0,19.24,2.75,25.24,8s9,12.62,9.07,21.64-3.35,16.09-9.26,21.23-14.53,8.53-25,8.53H870.63V61.5h26.83c7.81,0,14-1.77,18.51-5.28,5.09-4,7.68-10,7.7-17.82s-2.61-13.84-7.7-17.83c-4.47-3.51-10.7-5.28-18.51-5.28H870.64V8.79Zm-26.82,21v-7.9h26.82c13.19,0,19.62,5.41,19.65,16.55S910.65,55,897.46,55H870.64Z"/><polygon class="cls-1" points="617.37 2.23 609.81 2.23 650.07 73.1 650.07 121.7 656.63 121.7 656.63 71.37 617.37 2.23"/><polygon class="cls-1" points="703.57 2.23 668.09 64.88 664.74 58.85 696.04 2.23 688.52 2.23 660.99 52.09 633.3 2.23 625.7 2.23 664.4 71.75 664.4 121.7 670.96 121.7 670.96 73.1 711.22 2.23 703.57 2.23"/><polygon class="cls-1" points="754.87 2.23 710.55 121.7 717.48 121.7 761.95 2.23 754.87 2.23"/><path class="cls-1" d="M813.74,121.7h7.06L776.31,2.23h-8.63L724.92,121.7h7.15l11.31-31.85H787.5L799,121.7h7L768.72,18.61,772,9.35Zm-68-38.41,2.44-6.82H782.6l2.5,6.82ZM780.2,69.92H750.49l1.68-4.7L764.1,31.77h0l1.19-3.32Z"/></g></g></svg>