<?xml version="1.0" encoding="utf-8"?>
<!-- Generator: Adobe Illustrator 22.0.1, SVG Export Plug-In . SVG Version: 6.00 Build 0)  -->
<svg version="1.1" id="Capa_1" xmlns="http://www.w3.org/2000/svg" xmlns:xlink="http://www.w3.org/1999/xlink" x="0px" y="0px"
	 viewBox="0 0 352.9 223.3" style="enable-background:new 0 0 352.9 223.3;" xml:space="preserve">
<style type="text/css">
	.st0{fill:#06222E;}
</style>
<title>Recurso 1</title>
<g id="Capa_2_1_">
	<g id="Capa_1-2">
		<rect y="18.6" class="st0" width="11.2" height="204.7"/>
		<polygon class="st0" points="133.8,29.8 133.8,18.6 24.3,18.6 24.3,223.3 35.5,223.3 35.5,138.2 122.8,138.2 122.8,126.9 
			35.5,126.9 35.5,115.2 122.8,115.2 122.8,104 35.5,104 35.5,52.2 133.8,52.2 133.8,41 35.5,41 35.5,29.8 		"/>
		<path class="st0" d="M352,199.8L352,199.8l-1-5.4h-8l-87.3-51.8l8.2-3.7l86.4,51.3l-1.8-10.1l-76-45.2l8.2-3.7l66.1,39.3
			l-1.8-10.1l-55.7-33.1l8.3-3.7l45.7,27.1l-1.8-10.1l-35.3-21l8.2-3.7l25.4,15.1l-1.8-10.1l-15-8.9l12.4-5.6l0-0.3l-1.3-7.6
			l-6.5,2.9l-71.5-42.5l8.2-3.7l69.4,41.3l-1.7-10l-59.1-35.1l8.2-3.7l49.1,29.2l-1.8-10.1L289.7,44l8.3-3.7l28.8,17.1L325,47.3
			l-18.4-10.9l15.2-6.8l-2-11h-25.2L292.3,0h-64.8l-2.3,18.6h-25.2l-1.8,10.2h32.4L195.2,45l-1.6,9.2l55.6-25.4h18.6L192,63
			l-1.6,9.2l96.2-43.4h18.1L188.8,81l-1.6,9.2L247.5,63l7.8,4.6l-69.7,31.4l-1.6,9.2l79.4-35.8l7.8,4.7l-88.8,40l-1.6,9.2L279.3,82
			l7.8,4.6l-107.9,48.7l-1.6,9.2l117.7-53.1l7.8,4.7L176,153.4l-1.6,9.2L311.2,101l7.8,4.6l-146.2,65.9l-1.6,9.2l76-34.3l8,4.7
			l-85.6,38.6l-2.6,14.9h40l-2.3,18.6h110.7l-2.3-18.6h40L352,199.8z M235.4,18.6l1.1-8.4h46.8l1,8.4H235.4z M303.3,179.9
			l-32.3,14.6h-18.5l42.8-19.3L303.3,179.9z M196.4,194.4h-17.1l0.1-0.6l83.8-37.8l7.9,4.7L196.4,194.4z M279.3,165.6l8,4.7
			l-53.5,24.1h-18.5L279.3,165.6z M216.1,213l1-8.4h85.5l1,8.4H216.1z M323,194.4h-33.1l21.6-9.7l16.4,9.7H323z"/>
	</g>
</g>
</svg>
