<svg xmlns="http://www.w3.org/2000/svg" viewBox="0 0 131.5 139.49"><defs><style>.cls-1{fill:#fff;}</style></defs><title>Recurso 1</title><g id="Capa_2" data-name="Capa 2"><g id="Capa_1-2" data-name="Capa 1"><path class="cls-1" d="M75.72,92.23a18.25,18.25,0,0,1-2-.11A18.86,18.86,0,0,0,91,76.88l.27-1.41L90,74.92a18.91,18.91,0,0,0-18.08,2A18.13,18.13,0,0,0,72,74.68a18.8,18.8,0,0,0-6.94-14.62L64,59.16l-1.12.9a18.8,18.8,0,0,0-6.94,14.62A18.29,18.29,0,0,0,56,76.91a18.87,18.87,0,0,0-18.09-2l-1.33.55.27,1.41A18.88,18.88,0,0,0,54.17,92.12a18.1,18.1,0,0,1-2,.11,16.85,16.85,0,0,1-5-32.94c-.06-.62-.1-1.24-.1-1.87a17.58,17.58,0,0,1,.09-1.79,16.85,16.85,0,0,1,33.51,0,15.1,15.1,0,0,1,.1,1.79,16.61,16.61,0,0,1-.11,1.87,16.42,16.42,0,0,1,3.35,1.46,16.84,16.84,0,0,1-8.34,31.48M63.84,92.1,64,92l.13.09Zm-4-4.13A15.33,15.33,0,0,1,40.71,77.66,15.33,15.33,0,0,1,59.88,88M64,85.56a15.32,15.32,0,0,1,0-21.77,15.34,15.34,0,0,1,0,21.77M68,88A15.33,15.33,0,0,1,87.21,77.66,15.33,15.33,0,0,1,68,88m16.3-31a20.37,20.37,0,0,0-40.72,0,20.37,20.37,0,0,0,8.6,38.84,20.19,20.19,0,0,0,10-2.64v20.76h3.52V93.12a20.13,20.13,0,0,0,10,2.64,20.37,20.37,0,0,0,8.61-38.84"/><path class="cls-1" d="M60.17,0l-2.5,2.48,8.79,9c-.81,0-1.62-.05-2.43-.05A64.1,64.1,0,0,0,2.93,94.69l3.38-1.06A60.51,60.51,0,0,1,64,15c.8,0,1.59,0,2.39,0L57.7,23.58l2.43,2.49L73.18,13.32Z"/><path class="cls-1" d="M130.58,105.62l-11.82,3.11A64.07,64.07,0,0,0,78.36,13l-.79,3.44a60.48,60.48,0,0,1,37.87,90.86l-3.32-12.45-3.39.88,4.77,18,18-4.78Z"/><path class="cls-1" d="M109.07,115.83A60.47,60.47,0,0,1,10.4,103.46l12.4,3.42,1-3.37-17.93-5-5,17.94,3.37.91,3.3-11.77a64.47,64.47,0,0,0,11.24,15.13,64,64,0,0,0,90.56,0c.82-.83,1.62-1.68,2.4-2.54Z"/></g></g></svg>