<svg xmlns="http://www.w3.org/2000/svg" viewBox="0 0 130.94 130.94"><defs><style>.cls-1{fill:#fff;}</style></defs><title>Recurso 1</title><g id="Capa_2" data-name="Capa 2"><g id="Capa_1-2" data-name="Capa 1"><path class="cls-1" d="M86.28,46.52a20.82,20.82,0,0,0-41.62,0,20.82,20.82,0,1,0,19,37v21.22h3.6V83.52a20.81,20.81,0,1,0,19-37M69.63,78.26a15.65,15.65,0,0,1,19.6-10.54,15.68,15.68,0,0,1-19.6,10.54M65.47,75.8a15.67,15.67,0,0,1,0-22.26,15.67,15.67,0,0,1,0,22.26M61.3,78.26A15.69,15.69,0,0,1,41.69,67.72,15.67,15.67,0,0,1,61.3,78.26m4,4.21.13-.09.14.09Zm12.15.14a19,19,0,0,1-2-.11A19.29,19.29,0,0,0,93.13,66.92l.27-1.45-1.35-.56a19.22,19.22,0,0,0-16.52.82,20.62,20.62,0,0,0-2,1.21,19.18,19.18,0,0,0-7-17.21l-1.14-.93-1.14.93a19.2,19.2,0,0,0-7,17.22,19.81,19.81,0,0,0-2-1.22,19.22,19.22,0,0,0-16.52-.82l-1.35.56.28,1.45A19.27,19.27,0,0,0,55.45,82.5a18.66,18.66,0,0,1-2,.11,17.22,17.22,0,0,1-5.1-33.67A17.37,17.37,0,0,1,48.25,47c0-.61,0-1.22.09-1.82a17.23,17.23,0,0,1,34.26,0c.06.6.1,1.21.1,1.82a17.37,17.37,0,0,1-.11,1.92,17.22,17.22,0,0,1-5.1,33.67"/><path class="cls-1" d="M65.47,130.94A65.46,65.46,0,0,1,19.18,19.18a65.47,65.47,0,0,1,92.59,92.59,65.08,65.08,0,0,1-46.3,19.17m0-127.34a61.87,61.87,0,1,0,61.87,61.87A61.95,61.95,0,0,0,65.47,3.6"/></g></g></svg>