<svg xmlns="http://www.w3.org/2000/svg" viewBox="0 0 365.38 132.69"><defs><style>.cls-1{fill:#fff;}</style></defs><title>Recurso 4</title><g id="Capa_2" data-name="Capa 2"><g id="Capa_1-2" data-name="Capa 1"><polygon class="cls-1" points="365.38 91.08 365.38 83.94 348.21 83.94 348.21 48.57 341.08 48.57 341.07 91.08 365.38 91.08"/><polygon class="cls-1" points="341.07 97.29 341.08 130.26 348.21 130.26 348.21 104.43 365.38 104.43 365.38 97.29 341.07 97.29"/><polygon class="cls-1" points="333.3 91.08 333.3 48.57 326.16 48.57 326.16 83.94 291.43 83.94 341.88 2.97 333.47 2.97 270.25 104.43 326.16 104.43 326.16 130.26 333.3 130.26 333.3 97.29 283.1 97.29 286.97 91.08 333.3 91.08"/><polygon class="cls-1" points="325.38 2.97 316.99 2.97 267.39 83.55 267.39 97.16 325.38 2.97"/><rect class="cls-1" x="219.55" y="-38.98" width="7.14" height="86.2" transform="translate(216.16 227.16) rotate(-89.27)"/><polygon class="cls-1" points="179.8 20.49 229.24 21.11 241.17 21.27 188.84 127.42 196.84 127.52 249.08 21.37 256.8 21.47 205.2 127.62 213.06 127.72 266.03 18.81 266.09 14.45 179.89 13.35 179.8 20.49"/><rect class="cls-1" x="45.43" y="0.54" width="7.14" height="127.29"/><polygon class="cls-1" points="33.63 0.54 0 24.65 0 33.43 30.34 11.68 30.34 19.11 0 41.13 0 49.95 30.34 27.93 30.34 127.84 37.48 127.84 37.48 0.54 33.63 0.54"/><path class="cls-1" d="M87.07,76.45C94.78,84.66,105.55,89,118.21,89a33.23,33.23,0,0,0,22.66-8.45c-.7,7.67-.77,14-3.07,18.93-4,8.56-10,12.72-19.07,12.72-10.14,0-17.25-6.18-18.12-15.27l-.31-3.23h-7a39.87,39.87,0,0,0,.81,7.41c2.58,10.86,12.08,18.23,24.65,18.23,11.75,0,20.38-5.82,25.53-16.84,3.88-8.29,4-17.65,4.47-26.69a179.9,179.9,0,0,0-.36-28.9,52,52,0,0,0-5.5-19.24,27.24,27.24,0,0,0-2.89-4.2c-5.24-6.26-13-9.58-21.78-9.58S102,17.05,96.74,23c-4.9,5.53-7.6,13.29-7.6,21.85,0,8.4,2.53,16,7.13,21.46,5.25,6.22,13,9.5,22.28,9.5,9.11,0,18.89-4.85,23-11.72-.12.21,0,2.05-.07,3.29-.08,1.65-.28,3.19-.28,3.19-5.92,8.63-13,11-23,11.28-10.64.29-18.38-3.33-25.94-10.3A36.29,36.29,0,0,1,81,45C81,23,96.45,7.68,118.55,7.68c11.56,0,24.67,5.87,30.14,13.81,8.22,11.94,8.85,28.53,8.85,43.13,0,23.15-3.51,40.08-12.79,50.32-6.37,7-13.77,10.61-25.43,10.61-16.54,0-30.68-9.8-33.71-24.36a47.73,47.73,0,0,1-.86-7.49H77.58l.31,3.85c.84,10.34,5.21,19.46,12.65,25.79,7.08,6,18.46,9.35,28.78,9.35,13.76,0,22.94-4.36,30.72-13,10.51-11.59,14.63-30.13,14.63-55.11,0-15.76-.15-33.72-10.24-47.37C146.62,6.63,132.4.54,118.55.54,92.67.54,73.89,19.25,73.89,45c0,12.59,5.69,23.46,13.18,31.42m31.48-7.77c-16.42,0-22.27-12.31-22.27-23.82,0-14.48,8.6-23.83,21.92-23.83,15.7,0,21.57,12,21.57,23.83,0,17.56-11,23.82-21.22,23.82"/></g></g></svg>