<svg xmlns="http://www.w3.org/2000/svg" viewBox="0 0 380.29 134.57"><defs><style>.cls-1{fill:#fff;}</style></defs><title>Recurso 6</title><g id="Capa_2" data-name="Capa 2"><g id="Capa_1-2" data-name="Capa 1"><polygon class="cls-1" points="376.13 8.35 376.13 1.21 301.3 1.21 295.71 72.85 302.76 72.85 307.9 8.35 376.13 8.35"/><path class="cls-1" d="M339.62,42c-8.61,0-16.3,2.18-22.23,6.17l2.12-26.43h56.62V14.56H312.92l-4.75,58.29h9.29l1.05-1.62c3.65-5.61,10.37-9,18-9,6.74,0,12.32,2.33,16.14,6.73,3.62,4.16,5.61,10.18,5.61,16.93,0,14.79-8.54,24.34-21.75,24.34-12.4,0-21.35-8.15-22.27-20.28l-.26-3.3h-7.24a50,50,0,0,0,.9,7.67c2.71,13.75,14.1,23,28.87,23,17.28,0,28.88-12.65,28.88-31.48,0-18.42-11.6-30.79-28.88-30.79-7.91,0-15.3,3.94-20.45,8.87l.52-7.18c6.37-5.9,13.06-7.73,23.05-7.73,9.75,0,18.12,3.45,24.2,10s9.34,15.76,9.34,26.13c0,23.07-14.66,38.56-36.49,38.56C317,123.79,303,112.4,300,94.4a75.58,75.58,0,0,1-.82-7.71h-7.06l.25,3.81c1.6,24.18,19.4,40.43,44.3,40.43,13.12,0,24.24-4.66,32.17-13.47,7.39-8.2,11.45-19.65,11.45-32.23,0-25.48-16.72-43.27-40.67-43.27"/><rect class="cls-1" x="45.43" y="2.43" width="7.14" height="127.29"/><polygon class="cls-1" points="33.63 2.43 0 26.53 0 35.31 30.34 13.57 30.34 20.99 0 43.02 0 51.83 30.34 29.81 30.34 129.72 37.48 129.72 37.48 2.43 33.63 2.43"/><path class="cls-1" d="M87.07,78.33c7.71,8.21,18.48,12.55,31.14,12.55a33.18,33.18,0,0,0,22.66-8.45c-.7,7.67-.77,14-3.07,18.93-4,8.56-10,12.73-19.07,12.73-10.14,0-17.25-6.18-18.12-15.28l-.31-3.23h-7a39.87,39.87,0,0,0,.81,7.41c2.58,10.86,12.08,18.23,24.65,18.23,11.75,0,20.38-5.82,25.53-16.83,3.88-8.29,4-17.65,4.47-26.7a179.92,179.92,0,0,0-.36-28.9,52,52,0,0,0-5.5-19.24A26.68,26.68,0,0,0,140,25.36c-5.24-6.27-13-9.58-21.78-9.58S102,18.93,96.74,24.89c-4.9,5.53-7.6,13.29-7.6,21.85,0,8.4,2.53,16,7.13,21.46,5.25,6.22,13,9.5,22.28,9.5,9.11,0,18.89-4.84,23-11.71-.12.21,0,2-.07,3.28-.08,1.66-.28,3.19-.28,3.19-5.92,8.64-13,11-23,11.28-10.64.3-18.38-3.33-25.94-10.29A36.29,36.29,0,0,1,81,46.91c0-22,15.43-37.35,37.53-37.35,11.56,0,24.67,5.87,30.14,13.81,8.22,11.94,8.85,28.53,8.85,43.14,0,23.15-3.51,40.07-12.79,50.31-6.37,7-13.77,10.62-25.43,10.62-16.54,0-30.68-9.81-33.71-24.36a48.12,48.12,0,0,1-.86-7.5H77.58l.31,3.85c.84,10.35,5.21,19.46,12.65,25.8,7.08,6,18.46,9.34,28.78,9.34,13.76,0,22.94-4.36,30.72-13,10.51-11.59,14.63-30.13,14.63-55.1,0-15.77-.15-33.73-10.24-47.38-7.81-10.61-22-16.7-35.88-16.7-25.88,0-44.66,18.71-44.66,44.48,0,12.6,5.69,23.46,13.18,31.42m31.48-7.76c-16.42,0-22.27-12.31-22.27-23.83,0-14.47,8.6-23.83,21.92-23.83,15.7,0,21.57,12,21.57,23.83,0,17.57-11,23.83-21.22,23.83"/><path class="cls-1" d="M274.88,92.86A34.86,34.86,0,0,0,263.65,67c-.6-.57-1.22-1.13-1.86-1.67-.89-.75-1.84-1.45-2.81-2.12l.21-.18a32.4,32.4,0,0,0,13.09-26.2c0-.26,0-.52,0-.78s0-.49,0-.73l0-.14A34.7,34.7,0,0,0,264,13.75C256.62,5.16,244.77,0,230.4,0,219,0,209.21,3.25,202,8.87h0l-.56.43a32.43,32.43,0,0,0-12.88,26.05c0,.24,0,.48,0,.72a34.68,34.68,0,0,0,8.4,22.53,35.78,35.78,0,0,0,4.88,4.64c-1,.67-1.91,1.37-2.81,2.12a36.21,36.21,0,0,0-7.22,8.12,34.64,34.64,0,0,0-5.87,19.38c0,.25,0,.49,0,.74s0,.49,0,.75a34.84,34.84,0,0,0,11.23,25.82q.9.87,1.86,1.68c8,6.64,19.11,10.3,31.4,10.3s23.43-3.66,31.39-10.3a36.43,36.43,0,0,0,7.22-8.12,34.66,34.66,0,0,0,5.87-19.38c0-.25,0-.5,0-.74s0-.5,0-.75M261.94,111.3c-4.27,5.79-10.73,10-18.8,12.13a52.15,52.15,0,0,1-25.52,0,35.31,35.31,0,0,1-15-7.9A27.75,27.75,0,0,1,193,94.35c0-.23,0-.45,0-.67a30.23,30.23,0,0,1,6.08-18.16,30.67,30.67,0,0,1,9.38-8.08l.53-.3.65.31c1.73.8,3.62,1.59,5.53,2.26.82.28,1.65.54,2.47.77l-.41.16c-9.2,4-15.11,12.33-15.58,23,0,.47,0,.93,0,1.4,0,15.41,11.53,25.76,28.71,25.76S259.1,110.45,259.1,95c0-.47,0-.93,0-1.39-.47-10.68-6.38-19-15.58-23a30.7,30.7,0,0,0-4.63-1.56h0c.8.17-5.11-1.3-10.67-2.61l-3.16-.74a60.1,60.1,0,0,1-6.72-1.65c-.24-.09-1.32-.49-1.62-.58L214,62.44a45.84,45.84,0,0,1-5.27-3,28.33,28.33,0,0,1-7.13-6.36,27.75,27.75,0,0,1-5.89-17c0-.23,0-.46,0-.69A25,25,0,0,1,205,15.54,32.78,32.78,0,0,1,217.7,8.82a46.18,46.18,0,0,1,12.7-1.68A46.73,46.73,0,0,1,242.25,8.6c7.44,2,13.43,5.79,17.4,11.08a25,25,0,0,1,5.5,15.67c0,.23,0,.46,0,.69a27.43,27.43,0,0,1-9.63,20.88,30.5,30.5,0,0,1-3.39,2.49l-.25-.08c-.84-.3-3.61-1.38-6.37-2.44l-1.65-.64A22.52,22.52,0,0,0,256.66,36c0-.21,0-.42,0-.64,0-14-10.81-23.86-26.28-23.86s-26.29,9.81-26.29,23.86c0,.21,0,.42,0,.63A22.56,22.56,0,0,0,217.46,56.5a27.76,27.76,0,0,0,6.84,2.15h0c.07,0,4,.91,8.33,2,2.67.65,5.5,1.38,7.73,2,.77.22,1.65.5,2.57.82a63,63,0,0,1,9.36,4A32.36,32.36,0,0,1,258,71.53a29.79,29.79,0,0,1,9.78,22.16,30.39,30.39,0,0,1-5.79,17.61M230.4,75.2c12.57,0,20.87,7.18,21.52,18.4,0,.48.05,1,.05,1.44,0,11.49-8.27,18.62-21.57,18.62S208.82,106.53,208.82,95c0-.49,0-1,.05-1.44.65-11.23,8.95-18.4,21.53-18.4m0-23.14c-11.34,0-18.77-6.24-19.13-16,0-.25,0-.5,0-.75,0-10.16,7.52-16.72,19.15-16.72s19.14,6.56,19.14,16.72c0,.25,0,.5,0,.76-.36,9.72-7.79,16-19.12,16"/></g></g></svg>