<svg xmlns="http://www.w3.org/2000/svg" viewBox="0 0 406.34 133.34"><defs><style>.cls-1{fill:#fff;}</style></defs><title>Recurso 10</title><g id="Capa_2" data-name="Capa 2"><g id="Capa_1-2" data-name="Capa 1"><path class="cls-1" d="M146.55,132.15c-12,0-21.69-3.67-29.67-11.21l0,0c-13.39-12.84-16-29.87-16-54.93s2.62-42.09,16-54.94c7.88-7.44,17.59-11,29.69-11s21.81,3.61,29.67,11c13.41,12.87,16,29.89,16,55s-2.62,42.09-16,54.93c-8,7.56-17.7,11.23-29.69,11.23m-24.76-16.39c6.59,6.22,14.69,9.25,24.76,9.25s18.18-3,24.77-9.26c11.59-11.12,13.8-26.07,13.8-49.76S182.91,27.34,171.3,16.2c-6.45-6.09-14.55-9.06-24.75-9.06s-18.3,3-24.77,9.08C110.19,27.34,108,42.29,108,66s2.2,38.63,13.8,49.77m24.76,2.86c-7.33,0-14.14-2.36-18.69-6.47-10-9.16-11.58-21.1-11.58-46.16,0-17.41,0-35.42,11.57-46,4.56-4.13,11.37-6.49,18.7-6.49S160.7,15.88,165.24,20c11.58,10.58,11.58,28.59,11.58,46,0,25-1.6,37-11.55,46.14l0,0c-4.54,4.11-11.35,6.47-18.69,6.47m0-98c-5.5,0-10.7,1.73-13.9,4.63-8.57,7.82-9.23,21.8-9.23,40.7,0,25.43,2,34.22,9.25,40.89,3.18,2.88,8.38,4.6,13.88,4.6s10.69-1.72,13.9-4.61c7.25-6.68,9.24-15.48,9.24-40.88,0-18.9-.67-32.88-9.25-40.71-3.18-2.89-8.38-4.62-13.89-4.62"/><path class="cls-1" d="M255.21,132.15c-12,0-21.69-3.67-29.67-11.21l0,0c-13.39-12.84-16-29.87-16-54.93s2.62-42.09,16-54.94C233.4,3.61,243.1,0,255.21,0S277,3.61,284.88,11c13.41,12.87,16,29.89,16,55s-2.62,42.09-16,54.93c-8,7.56-17.71,11.23-29.69,11.23m-24.76-16.39C237,122,245.14,125,255.21,125s18.17-3,24.77-9.26c11.59-11.12,13.79-26.07,13.79-49.76S291.57,27.34,280,16.2c-6.45-6.09-14.56-9.06-24.75-9.06s-18.3,3-24.77,9.08c-11.59,11.12-13.8,26.07-13.8,49.77s2.2,38.63,13.81,49.77m24.76,2.86c-7.34,0-14.15-2.36-18.69-6.47-10-9.16-11.58-21.1-11.58-46.16,0-17.41,0-35.42,11.56-46,4.56-4.13,11.37-6.49,18.71-6.49S269.36,15.88,273.9,20c11.58,10.58,11.58,28.59,11.58,46,0,25-1.61,37-11.56,46.14l0,0c-4.55,4.11-11.36,6.47-18.69,6.47m0-98c-5.51,0-10.7,1.73-13.91,4.63-8.56,7.82-9.22,21.8-9.22,40.7,0,25.43,2,34.22,9.24,40.89,3.19,2.88,8.38,4.6,13.89,4.6s10.69-1.72,13.89-4.61c7.25-6.68,9.24-15.48,9.24-40.88,0-18.9-.66-32.88-9.24-40.71-3.19-2.89-8.39-4.62-13.89-4.62"/><path class="cls-1" d="M.17,111.92v10.47l14.68-15.78L54.37,64.09c7.89-8.4,11.89-17,11.89-25.67,0-14.49-9.57-23.86-24.37-23.86-15.75,0-25.25,9.38-26.49,25.82,0,.07-.21,5.63-.1,7.33h7.1V44.14C22.4,29.25,29,21.7,41.89,21.7c10.79,0,17.23,6.25,17.23,16.72,0,6.76-3.35,13.75-10,20.8Z"/><path class="cls-1" d="M16.85,123.79l6.93-6.73H83.6v-7.14H31.17l35-37.67c10.37-11,15.2-21.78,15.2-34,0-22.14-15.79-37-39.29-37-12.37,0-22.83,3.86-30.26,11.15C4.08,19.93,0,30.92,0,44.14v3.57H7.15c-.16-1.7.11-7.27.12-7.34,1.41-20.11,14.19-32,34.79-32,19.53,0,32.15,11.74,32.15,29.89,0,10.44-4.09,19.41-13.27,29.13L23.6,107.59l-.05,0-20,20.06h0L.17,130.92H83.6v-7.14Z"/><polygon class="cls-1" points="402.18 10.76 402.18 3.62 327.34 3.62 321.76 75.25 328.81 75.25 333.95 10.76 402.18 10.76"/><path class="cls-1" d="M365.67,44.36c-8.61,0-16.3,2.19-22.23,6.18l2.12-26.43h56.62V17H339l-4.75,58.29h9.28l1.06-1.63c3.64-5.6,10.37-8.95,18-8.95,6.74,0,12.32,2.32,16.14,6.72,3.61,4.17,5.6,10.18,5.6,16.93,0,14.79-8.53,24.35-21.74,24.35-12.4,0-21.36-8.15-22.28-20.28L340,89.1h-7.24a49.36,49.36,0,0,0,.89,7.67c2.72,13.75,14.11,23,28.88,23,17.27,0,28.88-12.65,28.88-31.48,0-18.41-11.61-30.79-28.88-30.79-7.91,0-15.31,3.94-20.45,8.88l.51-7.18c6.38-5.91,13.07-7.74,23.06-7.74,9.75,0,18.12,3.46,24.19,10s9.34,15.77,9.34,26.14c0,23.06-14.66,38.56-36.48,38.56-19.68,0-33.66-11.39-36.68-29.4,0-.16-.75-4.91-.81-7.7h-7.07l.25,3.8c1.61,24.19,19.41,40.44,44.31,40.44,13.11,0,24.24-4.66,32.17-13.47,7.38-8.2,11.45-19.65,11.45-32.23,0-25.48-16.72-43.28-40.67-43.28"/></g></g></svg>