<svg xmlns="http://www.w3.org/2000/svg" viewBox="0 0 406.14 134.55"><defs><style>.cls-1{fill:#fff;}</style></defs><title>Recurso 11</title><g id="Capa_2" data-name="Capa 2"><g id="Capa_1-2" data-name="Capa 1"><path class="cls-1" d="M146.55,132.15c-12,0-21.69-3.67-29.67-11.21l0,0c-13.39-12.84-16-29.87-16-54.93s2.62-42.09,16-54.94c7.88-7.44,17.59-11,29.69-11s21.81,3.61,29.67,11c13.41,12.87,16,29.89,16,55s-2.62,42.09-16,54.93c-8,7.56-17.7,11.23-29.69,11.23m-24.76-16.39c6.59,6.22,14.69,9.25,24.76,9.25s18.18-3,24.77-9.26c11.59-11.12,13.8-26.07,13.8-49.76S182.91,27.34,171.3,16.2c-6.45-6.09-14.55-9.06-24.75-9.06s-18.3,3-24.77,9.08C110.19,27.34,108,42.29,108,66s2.2,38.63,13.8,49.77m24.76,2.86c-7.33,0-14.14-2.36-18.69-6.47-10-9.16-11.58-21.1-11.58-46.16,0-17.41,0-35.42,11.57-46,4.56-4.13,11.37-6.49,18.7-6.49S160.7,15.88,165.24,20c11.58,10.58,11.58,28.59,11.58,46,0,25-1.6,37-11.55,46.14l0,0c-4.54,4.11-11.35,6.47-18.69,6.47m0-98c-5.5,0-10.7,1.73-13.9,4.63-8.57,7.82-9.23,21.8-9.23,40.7,0,25.43,2,34.22,9.25,40.89,3.18,2.88,8.38,4.6,13.88,4.6s10.69-1.72,13.9-4.61c7.25-6.68,9.24-15.48,9.24-40.88,0-18.9-.67-32.88-9.25-40.71-3.18-2.89-8.38-4.62-13.89-4.62"/><path class="cls-1" d="M255.21,132.15c-12,0-21.69-3.67-29.67-11.21l0,0c-13.39-12.84-16-29.87-16-54.93s2.62-42.09,16-54.94C233.4,3.61,243.1,0,255.21,0S277,3.61,284.88,11c13.41,12.87,16,29.89,16,55s-2.62,42.09-16,54.93c-8,7.56-17.71,11.23-29.69,11.23m-24.76-16.39C237,122,245.14,125,255.21,125s18.17-3,24.77-9.26c11.59-11.12,13.79-26.07,13.79-49.76S291.57,27.34,280,16.2c-6.45-6.09-14.56-9.06-24.75-9.06s-18.3,3-24.77,9.08c-11.59,11.12-13.8,26.07-13.8,49.77s2.2,38.63,13.81,49.77m24.76,2.86c-7.34,0-14.15-2.36-18.69-6.47-10-9.16-11.58-21.1-11.58-46.16,0-17.41,0-35.42,11.56-46,4.56-4.13,11.37-6.49,18.71-6.49S269.36,15.88,273.9,20c11.58,10.58,11.58,28.59,11.58,46,0,25-1.61,37-11.56,46.14l0,0c-4.55,4.11-11.36,6.47-18.69,6.47m0-98c-5.51,0-10.7,1.73-13.91,4.63-8.56,7.82-9.22,21.8-9.22,40.7,0,25.43,2,34.22,9.24,40.89,3.19,2.88,8.38,4.6,13.89,4.6s10.69-1.72,13.89-4.61c7.25-6.68,9.24-15.48,9.24-40.88,0-18.9-.66-32.88-9.24-40.71-3.19-2.89-8.39-4.62-13.89-4.62"/><path class="cls-1" d="M.17,111.92v10.47l14.68-15.78L54.37,64.09c7.89-8.4,11.89-17,11.89-25.67,0-14.49-9.57-23.86-24.37-23.86-15.75,0-25.25,9.38-26.49,25.82,0,.07-.21,5.63-.1,7.33h7.1V44.14C22.4,29.25,29,21.7,41.89,21.7c10.79,0,17.23,6.25,17.23,16.72,0,6.76-3.35,13.75-10,20.8Z"/><path class="cls-1" d="M16.85,123.79l6.93-6.73H83.6v-7.14H31.17l35-37.67c10.37-11,15.2-21.78,15.2-34,0-22.14-15.79-37-39.29-37-12.37,0-22.83,3.86-30.26,11.15C4.08,19.93,0,30.92,0,44.14v3.57H7.15c-.16-1.7.11-7.27.12-7.34,1.41-20.11,14.19-32,34.79-32,19.53,0,32.15,11.74,32.15,29.89,0,10.44-4.09,19.41-13.27,29.13L23.6,107.59l-.05,0-20,20.06h0L.17,130.92H83.6v-7.14Z"/><path class="cls-1" d="M406.14,95.27A34.86,34.86,0,0,0,394.9,69.44c-.6-.57-1.21-1.13-1.86-1.67-.89-.75-1.83-1.45-2.8-2.12l.21-.18a32.4,32.4,0,0,0,13.09-26.21c0-.26,0-.51,0-.77s0-.49,0-.74l-.06-.14a34.56,34.56,0,0,0-8.23-21.45C387.87,7.56,376,2.41,361.65,2.41c-11.39,0-21.19,3.24-28.44,8.86h0c-.2.14-.38.3-.57.44a32.41,32.41,0,0,0-12.88,26c0,.25,0,.49,0,.73A34.71,34.71,0,0,0,328.19,61a35.13,35.13,0,0,0,4.87,4.64c-1,.67-1.91,1.37-2.81,2.12A36.34,36.34,0,0,0,323,75.88a34.7,34.7,0,0,0-5.88,19.39c0,.25,0,.49,0,.74s0,.49,0,.74a34.82,34.82,0,0,0,11.24,25.83c.6.57,1.21,1.13,1.85,1.67,8,6.64,19.11,10.3,31.4,10.3s23.44-3.66,31.39-10.3a36,36,0,0,0,7.22-8.12,34.62,34.62,0,0,0,5.88-19.38c0-.25,0-.49,0-.74s0-.49,0-.74M393.2,113.71c-4.28,5.79-10.74,10-18.81,12.12a52.15,52.15,0,0,1-25.52,0,35.31,35.31,0,0,1-15-7.89,27.74,27.74,0,0,1-9.61-21.18c0-.22,0-.44,0-.66a30.33,30.33,0,0,1,6.08-18.17,31.06,31.06,0,0,1,9.38-8.08l.53-.29.65.3a57.71,57.71,0,0,0,5.54,2.26q1.23.44,2.46.78l-.41.16c-9.19,4-15.1,12.33-15.58,23,0,.46,0,.93,0,1.4,0,15.4,11.54,25.76,28.71,25.76s28.71-10.36,28.71-25.76c0-.47,0-.94,0-1.4-.47-10.67-6.38-19-15.57-23a30,30,0,0,0-4.63-1.56h0c.8.17-5.11-1.3-10.68-2.61l-3.16-.74a59,59,0,0,1-6.71-1.66c-.25-.08-1.32-.48-1.63-.58-.76-.28-1.66-.62-2.75-1.05a47.37,47.37,0,0,1-5.27-3,28.18,28.18,0,0,1-7.13-6.37,27.85,27.85,0,0,1-5.89-17c0-.24,0-.46,0-.7A25,25,0,0,1,336.24,18,32.78,32.78,0,0,1,349,11.23,48.69,48.69,0,0,1,373.5,11c7.45,2,13.43,5.8,17.41,11.08a25,25,0,0,1,5.49,15.67c0,.24,0,.47,0,.7a27.38,27.38,0,0,1-9.64,20.87,30.12,30.12,0,0,1-3.38,2.5l-.26-.08c-.84-.3-3.6-1.38-6.37-2.45l-1.65-.63A22.52,22.52,0,0,0,387.91,38.4c0-.22,0-.43,0-.65,0-14-10.81-23.85-26.28-23.85s-26.28,9.81-26.28,23.85c0,.22,0,.43,0,.64a22.53,22.53,0,0,0,13.32,20.52,28.78,28.78,0,0,0,6.84,2.15h0c.07,0,4,.9,8.33,2,2.66.66,5.5,1.38,7.72,2,.77.22,1.65.5,2.57.81a65.18,65.18,0,0,1,9.36,4,32.49,32.49,0,0,1,5.69,4.1A29.8,29.8,0,0,1,399,96.09a30.39,30.39,0,0,1-5.78,17.62m-31.55-36.1c12.57,0,20.87,7.17,21.52,18.4,0,.47.05.95.05,1.44,0,11.48-8.26,18.62-21.57,18.62s-21.57-7.14-21.57-18.62c0-.49,0-1,0-1.44.65-11.23,8.95-18.4,21.53-18.4m0-23.14c-11.34,0-18.76-6.24-19.13-16,0-.25,0-.5,0-.76C342.5,27.6,350,21,361.65,21s19.14,6.56,19.14,16.71c0,.26,0,.51,0,.76-.37,9.72-7.79,16-19.13,16"/></g></g></svg>