<svg xmlns="http://www.w3.org/2000/svg" viewBox="0 0 376.71 132.15"><defs><style>.cls-1{fill:#fff;}</style></defs><title>Recurso 16</title><g id="Capa_2" data-name="Capa 2"><g id="Capa_1-2" data-name="Capa 1"><path class="cls-1" d="M146.55,132.15c-12,0-21.69-3.67-29.67-11.21l0,0c-13.39-12.84-16-29.87-16-54.93s2.62-42.09,16-54.94c7.88-7.44,17.59-11,29.69-11s21.81,3.61,29.67,11c13.41,12.87,16,29.89,16,55s-2.62,42.09-16,54.93c-8,7.56-17.7,11.23-29.69,11.23m-24.76-16.39c6.59,6.23,14.69,9.25,24.76,9.25s18.18-3,24.77-9.26c11.59-11.12,13.8-26.07,13.8-49.76S182.91,27.34,171.3,16.2c-6.45-6.09-14.55-9.06-24.75-9.06s-18.3,3-24.77,9.08C110.19,27.34,108,42.29,108,66s2.2,38.63,13.8,49.77m24.76,2.86c-7.33,0-14.14-2.35-18.69-6.47-10-9.15-11.58-21.1-11.58-46.16,0-17.41,0-35.42,11.57-46,4.56-4.13,11.37-6.49,18.7-6.49S160.7,15.88,165.24,20c11.58,10.57,11.58,28.58,11.58,46,0,25-1.6,37-11.55,46.14l0,0c-4.54,4.12-11.35,6.47-18.69,6.47m0-98c-5.5,0-10.7,1.73-13.9,4.63-8.57,7.82-9.23,21.8-9.23,40.7,0,25.43,2,34.22,9.25,40.89,3.18,2.88,8.38,4.61,13.88,4.61s10.69-1.73,13.9-4.62c7.25-6.68,9.24-15.48,9.24-40.88,0-18.9-.67-32.88-9.25-40.71-3.18-2.89-8.38-4.62-13.89-4.62"/><path class="cls-1" d="M.17,111.92V122.4l14.68-15.79L54.37,64.1c7.89-8.41,11.89-17,11.89-25.68,0-14.49-9.57-23.86-24.37-23.86-15.75,0-25.25,9.38-26.49,25.82,0,.07-.21,5.63-.1,7.33h7.1V44.14C22.4,29.25,29,21.7,41.89,21.7c10.79,0,17.23,6.25,17.23,16.72,0,6.76-3.35,13.75-10,20.8Z"/><path class="cls-1" d="M16.85,123.8l6.93-6.74H83.6v-7.13H31.17l35-37.68c10.37-11,15.2-21.78,15.2-34,0-22.15-15.79-37-39.29-37-12.37,0-22.83,3.86-30.26,11.15C4.08,19.93,0,30.92,0,44.14v3.57H7.15c-.16-1.7.11-7.27.12-7.34,1.41-20.11,14.19-32,34.79-32,19.53,0,32.15,11.74,32.15,29.9,0,10.43-4.09,19.4-13.27,29.12L23.6,107.59h-.05l-20,20h0L.17,130.92H83.6V123.8Z"/><rect class="cls-1" x="254.93" y="2.43" width="7.14" height="127.29"/><polygon class="cls-1" points="243.14 2.43 209.51 26.53 209.51 35.31 239.85 13.57 239.85 20.99 209.51 43.02 209.51 51.83 239.85 29.81 239.85 129.72 246.99 129.72 246.99 2.43 243.14 2.43"/><path class="cls-1" d="M376.71,92.86A34.86,34.86,0,0,0,365.48,67c-.6-.57-1.21-1.13-1.86-1.67a35,35,0,0,0-2.81-2.12l.22-.18a32.42,32.42,0,0,0,13.08-26.2c0-.26,0-.52,0-.78s0-.49,0-.73l-.05-.14a34.58,34.58,0,0,0-8.23-21.46C358.45,5.16,346.61,0,332.23,0,320.83,0,311,3.25,303.79,8.87h0c-.2.14-.38.29-.57.43a32.43,32.43,0,0,0-12.88,26.05c0,.24,0,.48,0,.72a34.64,34.64,0,0,0,8.41,22.53,35.13,35.13,0,0,0,4.87,4.64c-1,.67-1.91,1.37-2.81,2.12a35.92,35.92,0,0,0-7.21,8.12,34.65,34.65,0,0,0-5.88,19.38c0,.25,0,.49,0,.74s0,.49,0,.75A34.84,34.84,0,0,0,299,120.17q.9.87,1.86,1.68c8,6.64,19.11,10.3,31.4,10.3s23.43-3.66,31.39-10.3a36.43,36.43,0,0,0,7.22-8.12,34.66,34.66,0,0,0,5.87-19.38c0-.25,0-.5,0-.74s0-.5,0-.75M363.78,111.3c-4.28,5.79-10.74,10-18.81,12.13a52.15,52.15,0,0,1-25.52,0,35.21,35.21,0,0,1-15-7.9,27.72,27.72,0,0,1-9.61-21.17c0-.23,0-.45,0-.67A30.3,30.3,0,0,1,301,75.52a30.78,30.78,0,0,1,9.38-8.08l.53-.3.65.31c1.73.8,3.62,1.59,5.53,2.26.82.28,1.65.54,2.47.77l-.41.16c-9.2,4-15.1,12.33-15.58,23,0,.47,0,.93,0,1.4,0,15.41,11.53,25.76,28.71,25.76S360.94,110.45,360.94,95c0-.47,0-.93,0-1.39-.47-10.68-6.38-19-15.57-23a31.21,31.21,0,0,0-4.64-1.56h0c.81.17-5.1-1.3-10.67-2.61l-3.16-.74a59.3,59.3,0,0,1-6.71-1.65c-.25-.09-1.33-.49-1.63-.58l-2.75-1.06a45.84,45.84,0,0,1-5.27-3,28.33,28.33,0,0,1-7.13-6.36,27.75,27.75,0,0,1-5.89-17c0-.23,0-.46,0-.69a25,25,0,0,1,9.34-19.81,32.78,32.78,0,0,1,12.71-6.72,46.23,46.23,0,0,1,12.7-1.68A46.73,46.73,0,0,1,344.08,8.6c7.45,2,13.43,5.79,17.41,11.08A25,25,0,0,1,367,35.35c0,.23,0,.46,0,.69a27.4,27.4,0,0,1-9.64,20.88,31.33,31.33,0,0,1-3.38,2.49l-.26-.08c-.84-.3-3.6-1.38-6.37-2.44l-1.65-.64A22.52,22.52,0,0,0,358.49,36c0-.21,0-.42,0-.64,0-14-10.81-23.86-26.28-23.86S306,21.3,306,35.35c0,.21,0,.42,0,.63A22.53,22.53,0,0,0,319.29,56.5a27.9,27.9,0,0,0,6.84,2.15h0c.06,0,4,.91,8.32,2,2.67.65,5.51,1.38,7.73,2,.77.22,1.65.5,2.57.82a63,63,0,0,1,9.36,4,32.36,32.36,0,0,1,5.68,4.09,29.79,29.79,0,0,1,9.78,22.16,30.45,30.45,0,0,1-5.78,17.61M332.23,75.2c12.57,0,20.87,7.18,21.52,18.4,0,.48.05,1,.05,1.44,0,11.49-8.27,18.62-21.57,18.62S310.66,106.53,310.66,95c0-.49,0-1,0-1.44.65-11.23,8.95-18.4,21.53-18.4m0-23.14c-11.34,0-18.77-6.24-19.13-16,0-.25,0-.5,0-.75,0-10.16,7.52-16.72,19.15-16.72s19.14,6.56,19.14,16.72c0,.25,0,.5,0,.76-.36,9.72-7.79,16-19.12,16"/></g></g></svg>