<svg xmlns="http://www.w3.org/2000/svg" viewBox="0 0 134.37 142.54"><defs><style>.cls-1{fill:#fff;}</style></defs><title>Recurso 1</title><g id="Capa_2" data-name="Capa 2"><g id="Capa_1-2" data-name="Capa 1"><path class="cls-1" d="M71.16,79.79l11,6.14,10.67-6.14-.9-19h-21Zm2.73-16h15L89.79,78l-7.65,4.39-8-4.39Z"/><path class="cls-1" d="M59.87,60.78h-21l-.9,19,10.67,6.14,11-6.14ZM56.54,78l-7.95,4.39L40.94,78l.91-14.23h15Z"/><path class="cls-1" d="M32.08,112.75l4-59.19H63.59c0,10.45,0,26.34,0,34.8l-4,24.39h3.56l2.21-17.51,2.2,17.51h3.56l-4-24.39c0-8.46,0-24.35,0-34.8H94.66l4,59.19h3.59L98.16,52l0-10.51H32.59l0,10.51-4.08,60.77ZM67.15,45.07h27.4v5.46H67.14c0-2.32,0-4.2,0-5.46m-31,0h27.4c0,1.26,0,3.14,0,5.46H36.17Z"/><path class="cls-1" d="M61.49,0,58.93,2.53l9,9.2c-.83,0-1.65,0-2.48-.05A64.37,64.37,0,0,0,19.16,30.85,64.86,64.86,0,0,0,0,77.11,65.53,65.53,0,0,0,3,96.76l3.46-1.09a61.83,61.83,0,0,1,59-80.39c.81,0,1.62,0,2.43.05L59,24.1l2.48,2.54,13.33-13Z"/><path class="cls-1" d="M133.43,107.92l-12.08,3.18A65.49,65.49,0,0,0,80.07,13.32l-.81,3.52A61.8,61.8,0,0,1,118,109.68L114.56,97l-3.46.89L116,116.25l18.39-4.88Z"/><path class="cls-1" d="M111.45,118.36A61.78,61.78,0,0,1,10.63,105.71l12.67,3.5,1-3.44L6,100.68.86,119,4.3,120l3.38-12a65.46,65.46,0,0,0,104,15.46c.85-.85,1.67-1.72,2.46-2.6Z"/></g></g></svg>