<?xml version="1.0" encoding="utf-8"?>
<!-- Generator: Adobe Illustrator 22.0.1, SVG Export Plug-In . SVG Version: 6.00 Build 0)  -->
<svg version="1.1" id="Capa_1" xmlns="http://www.w3.org/2000/svg" xmlns:xlink="http://www.w3.org/1999/xlink" x="0px" y="0px"
	 viewBox="0 0 135 142.5" style="enable-background:new 0 0 135 142.5;" xml:space="preserve">
<style type="text/css">
	.st0{fill:#FFFFFF;}
</style>
<title>Recurso 1</title>
<g id="Capa_2_1_">
	<g id="Capa_1-2">
		<path class="st0" d="M61.5,0l-2.6,2.5l9,9.2c-0.8,0-1.7-0.1-2.5-0.1c-17.4-0.1-34.1,6.8-46.3,19.2C6.8,43.1-0.1,59.7,0,77.1
			c0,6.7,1,13.3,3,19.7l3.5-1.1c-10.3-32.6,7.8-67.3,40.4-77.5c6-1.9,12.3-2.9,18.6-2.9c0.8,0,1.6,0,2.4,0.1L59,24.1l2.5,2.5
			l13.3-13L61.5,0z"/>
		<path class="st0" d="M133.4,107.9l-12.1,3.2c18.8-30.9,8.9-71.2-22-90c-6-3.6-12.5-6.3-19.3-7.8l-0.8,3.5
			c33.3,7.6,54.1,40.7,46.5,74c-1.5,6.7-4.1,13-7.7,18.8L114.6,97l-3.5,0.9l4.9,18.4l18.4-4.9L133.4,107.9z"/>
		<path class="st0" d="M111.4,118.4c-22.8,25.4-61.8,27.6-87.2,4.8c-5.5-5-10.1-10.9-13.6-17.5l12.7,3.5l1-3.4L6,100.7L0.9,119
			l3.4,1l3.4-12c17,31.9,56.7,43.9,88.6,26.9c5.7-3,10.9-6.9,15.4-11.4c0.8-0.8,1.7-1.7,2.5-2.6L111.4,118.4z"/>
		<path class="st0" d="M49.4,97.6c-2.2,0-4.3-0.4-6.3-1.1c-1.9-0.8-3.6-1.9-5.1-3.4c-1.9-2-3.3-4.4-4-7.1c-0.7-2.9-1-5.8-1-8.8
			c0-2.9,0.3-5.9,1-8.7c0.7-2.7,2.1-5.1,4-7.1c3-3.1,7.1-4.8,11.4-4.7c4.3-0.1,8.4,1.5,11.4,4.6c1.9,2,3.3,4.4,4,7.1
			c1.3,5.8,1.3,11.7,0,17.5c-0.7,2.7-2.1,5.1-4,7.1c-1.4,1.5-3.2,2.7-5.1,3.5C53.7,97.2,51.6,97.6,49.4,97.6 M49.4,92.8
			c3,0.1,5.9-1.1,8-3.3c0.7-0.8,1.3-1.7,1.8-2.7c0.4-1,0.8-2,1-3.1c0.2-1.1,0.4-2.2,0.4-3.3c0-1.1,0.1-2.2,0.1-3.3s0-2.2-0.1-3.3
			c-0.1-1.1-0.2-2.2-0.4-3.3c-0.2-1-0.6-2-1-3c-0.5-1-1.1-1.9-1.8-2.7c-1-1.1-2.2-1.9-3.5-2.5c-2.9-1.2-6.2-1.2-9.1,0
			c-1.3,0.6-2.5,1.4-3.5,2.5c-0.7,0.8-1.3,1.7-1.8,2.7c-0.4,1-0.8,2-1,3c-0.2,1.1-0.4,2.2-0.4,3.3c0,1.1-0.1,2.2-0.1,3.3
			s0,2.2,0.1,3.3c0.1,1.1,0.2,2.2,0.4,3.3c0.2,1.1,0.6,2.1,1,3.1c0.4,1,1,1.9,1.8,2.7c2.1,2.2,5,3.4,8,3.3"/>
		<polygon class="st0" points="97.8,57.4 97.8,62 77.8,62 77.8,74.8 95.6,74.8 95.6,79.5 77.8,79.5 77.8,96.8 72.8,96.8 72.8,57.4 
					"/>
	</g>
</g>
</svg>
