<svg xmlns="http://www.w3.org/2000/svg" viewBox="0 0 131.5 139.49"><defs><style>.cls-1{fill:#fff;}</style></defs><title>Recurso 2</title><g id="Capa_2" data-name="Capa 2"><g id="Capa_1-2" data-name="Capa 1"><path class="cls-1" d="M76.21,86.11A1.24,1.24,0,0,1,75,87.36H53a1.24,1.24,0,0,1-1.23-1.25v-.76A1.24,1.24,0,0,1,53,84.1H75a1.24,1.24,0,0,1,1.23,1.25Zm0,6.85A1.24,1.24,0,0,1,75,94.2H53A1.24,1.24,0,0,1,51.73,93v-.77A1.24,1.24,0,0,1,53,91H75a1.24,1.24,0,0,1,1.23,1.24Zm0,6.84A1.24,1.24,0,0,1,75,101.05H53a1.24,1.24,0,0,1-1.23-1.25V99A1.24,1.24,0,0,1,53,97.79H75A1.24,1.24,0,0,1,76.21,99Zm0,6.84h0v.84a2.92,2.92,0,0,1-1,2.24,3,3,0,0,1-2,.71H54.72a3,3,0,0,1-2-.71,2.91,2.91,0,0,1-1-2.24v-.84h0v-.76A1.24,1.24,0,0,1,53,104.64H75a1.24,1.24,0,0,1,1.23,1.24Zm-24.48-31V61.76A3.46,3.46,0,0,1,52,60.18a32.84,32.84,0,0,1,3.46-3.69,47.89,47.89,0,0,0,4.32-4.6,8.38,8.38,0,0,0,1.15-4.21H67a8.48,8.48,0,0,0,1.14,4.21,48.13,48.13,0,0,0,4.33,4.6,32.52,32.52,0,0,1,3.45,3.69,3.46,3.46,0,0,1,.27,1.58V78.44a2.28,2.28,0,0,1-2.43,2.08H54.15a2.28,2.28,0,0,1-2.42-2.08Zm7-35.09a0,0,0,0,1,0,0H69.18a0,0,0,0,1,0,0v3.46a0,0,0,0,1,0,0H58.75a0,0,0,0,1,0,0Zm21,35.09h0v-.76h0V61.76A6.85,6.85,0,0,0,79,58.39a27,27,0,0,0-4.07-4.48,47.65,47.65,0,0,1-4-4.2,6.41,6.41,0,0,1-.43-2.3,3.63,3.63,0,0,0,2.21-3.36V40.5A3.52,3.52,0,0,0,69.18,37H58.75a3.53,3.53,0,0,0-3.56,3.54v3.55a3.65,3.65,0,0,0,2.21,3.36,6.19,6.19,0,0,1-.43,2.3,46.2,46.2,0,0,1-4,4.2,27.3,27.3,0,0,0-4.06,4.48,6.74,6.74,0,0,0-.73,3.37V74.92h0v.76h0v2.76A5.46,5.46,0,0,0,49.54,82a4.87,4.87,0,0,0-1.33,3.35v.76a4.88,4.88,0,0,0,1.06,3,4.88,4.88,0,0,0-1.06,3V93a4.88,4.88,0,0,0,1.06,3,4.88,4.88,0,0,0-1.06,3v.76a4.88,4.88,0,0,0,1.06,3,4.88,4.88,0,0,0-1.06,3v.76h0v.78A6.5,6.5,0,0,0,54.72,114h18.5a6.5,6.5,0,0,0,6.51-6.53v-.78h0v-.76a4.88,4.88,0,0,0-1.06-3,4.88,4.88,0,0,0,1.06-3V99a4.88,4.88,0,0,0-1.06-3,4.88,4.88,0,0,0,1.06-3v-.77a4.88,4.88,0,0,0-1.06-3,4.88,4.88,0,0,0,1.06-3v-.76A4.87,4.87,0,0,0,78.4,82a5.46,5.46,0,0,0,1.33-3.56Z"/><path class="cls-1" d="M60.17,0l-2.5,2.48,8.79,9c-.81,0-1.62,0-2.43-.05A63,63,0,0,0,18.75,30.19,64.17,64.17,0,0,0,2.93,94.69l3.38-1.07A60.5,60.5,0,0,1,64,15c.8,0,1.59,0,2.38,0L57.7,23.58l2.43,2.49L73.18,13.32Z"/><path class="cls-1" d="M130.58,105.62l-11.82,3.11A64.09,64.09,0,0,0,78.36,13l-.79,3.44a60.48,60.48,0,0,1,37.87,90.86L112.12,94.9l-3.39.87,4.77,18,18-4.78Z"/><path class="cls-1" d="M109.07,115.83A60.47,60.47,0,0,1,10.4,103.46l12.4,3.42,1-3.37-17.93-5-5,17.94,3.37.91,3.3-11.77a64.47,64.47,0,0,0,11.24,15.13,64,64,0,0,0,90.56,0c.82-.83,1.62-1.68,2.4-2.54Z"/></g></g></svg>