<svg xmlns="http://www.w3.org/2000/svg" viewBox="0 0 130.94 130.94"><defs><style>.cls-1{fill:#fff;}</style></defs><title>Recurso 2</title><g id="Capa_2" data-name="Capa 2"><g id="Capa_1-2" data-name="Capa 1"><path class="cls-1" d="M49.22,45.79c8.05,0,13.32,4.22,13.32,11.72S57.27,69.22,49.22,69.22H39.89V85.15H35V45.79Zm8.21,11.72c0-4.83-3-7.22-8.32-7.22H39.89V64.72h9.22c5.27,0,8.32-2.38,8.32-7.21"/><path class="cls-1" d="M86.83,74.05h-17L65.9,85.15H60.85l14.6-39.36h5.89L96,85.15H90.83Zm-1.72-4.66-6.83-19-6.77,19Z"/><path class="cls-1" d="M65.47,130.94A65.46,65.46,0,0,1,19.18,19.18a65.47,65.47,0,0,1,92.59,92.59,65.08,65.08,0,0,1-46.3,19.17m0-127.34a61.87,61.87,0,1,0,61.87,61.87A61.94,61.94,0,0,0,65.47,3.6"/></g></g></svg>