<svg xmlns="http://www.w3.org/2000/svg" viewBox="0 0 1920 38.36"><defs><style>.cls-1{fill:#f26d32;}</style></defs><title>Recurso 1</title><g id="Capa_2" data-name="Capa 2"><g id="Capa_1-2" data-name="Capa 1"><rect class="cls-1" y="7" width="1920" height="2"/><path class="cls-1" d="M264.81,36.24h2.84V27.88h-2.34V26.44a8.55,8.55,0,0,0,2.94-1H270V36.24h2.5v1.88h-7.66Z"/><path class="cls-1" d="M274.53,36.92l1.24-1.4a2.79,2.79,0,0,0,2,1c1.6,0,2.9-1.18,3-4.7A3.84,3.84,0,0,1,278,33.26c-2.18,0-3.7-1.28-3.7-3.94a4,4,0,0,1,4-4.16c2.48,0,4.6,1.92,4.6,6.2,0,4.94-2.38,7-5,7A4.57,4.57,0,0,1,274.53,36.92Zm6.22-6.8c-.24-2.24-1.16-3.2-2.4-3.2-1,0-1.9.86-1.9,2.4s.74,2.28,2,2.28A2.82,2.82,0,0,0,280.75,30.12Z"/><path class="cls-1" d="M285.33,36.24h2.84V27.88h-2.34V26.44a8.55,8.55,0,0,0,2.94-1h1.72V36.24H293v1.88h-7.66Z"/><path class="cls-1" d="M300.09,34.84h-5.62V33.28l5-7.88h2.74v7.66h1.6v1.78h-1.6v3.28h-2.16Zm0-1.78V30.18c0-.74.06-1.9.1-2.64h-.08c-.32.66-.68,1.3-1,2l-2.32,3.54Z"/><path class="cls-1" d="M433.85,36.24h2.84V27.88h-2.34V26.44a8.55,8.55,0,0,0,2.94-1H439V36.24h2.5v1.88h-7.66Z"/><path class="cls-1" d="M443.57,36.92l1.24-1.4a2.79,2.79,0,0,0,2,1c1.6,0,2.9-1.18,3-4.7a3.84,3.84,0,0,1-2.78,1.48c-2.18,0-3.7-1.28-3.7-3.94a4,4,0,0,1,4-4.16c2.48,0,4.6,1.92,4.6,6.2,0,4.94-2.38,7-5,7A4.57,4.57,0,0,1,443.57,36.92Zm6.22-6.8c-.24-2.24-1.16-3.2-2.4-3.2-1,0-1.9.86-1.9,2.4s.74,2.28,2,2.28A2.82,2.82,0,0,0,449.79,30.12Z"/><path class="cls-1" d="M458.87,34.84h-5.62V33.28l5-7.88H461v7.66h1.6v1.78H461v3.28h-2.16Zm0-1.78V30.18c0-.74.06-1.9.1-2.64h-.08c-.32.66-.68,1.3-1,2l-2.32,3.54Z"/><path class="cls-1" d="M470.05,27.34h-6V25.4h8.54v1.4c-3,3.7-3.5,6.36-3.72,11.32h-2.34C466.73,33.6,467.59,30.76,470.05,27.34Z"/><path class="cls-1" d="M602.89,36.24h2.84V27.88h-2.34V26.44a8.55,8.55,0,0,0,2.94-1h1.72V36.24h2.5v1.88h-7.66Z"/><path class="cls-1" d="M612.61,36.92l1.24-1.4a2.79,2.79,0,0,0,2,1c1.6,0,2.9-1.18,3-4.7a3.84,3.84,0,0,1-2.78,1.48c-2.18,0-3.7-1.28-3.7-3.94a4,4,0,0,1,4-4.16c2.48,0,4.6,1.92,4.6,6.2,0,4.94-2.38,7-5,7A4.57,4.57,0,0,1,612.61,36.92Zm6.22-6.8c-.24-2.24-1.16-3.2-2.4-3.2-1,0-1.9.86-1.9,2.4s.74,2.28,2,2.28A2.82,2.82,0,0,0,618.83,30.12Z"/><path class="cls-1" d="M622.41,36.6l1.06-1.48a4.26,4.26,0,0,0,3,1.36A2.3,2.3,0,0,0,628.91,34a2.19,2.19,0,0,0-2.34-2.38,3.26,3.26,0,0,0-2,.72l-1.1-.7.38-6.28h6.8v1.94h-4.8l-.26,3.08a3.6,3.6,0,0,1,1.68-.42,3.7,3.7,0,0,1,4,4,4.29,4.29,0,0,1-4.48,4.38A5.84,5.84,0,0,1,622.41,36.6Z"/><path class="cls-1" d="M639.09,27.34h-6V25.4h8.54v1.4c-3,3.7-3.5,6.36-3.72,11.32h-2.34C635.77,33.6,636.63,30.76,639.09,27.34Z"/><path class="cls-1" d="M771.93,36.24h2.84V27.88h-2.34V26.44a8.55,8.55,0,0,0,2.94-1h1.72V36.24h2.5v1.88h-7.66Z"/><path class="cls-1" d="M781.65,36.92l1.24-1.4a2.79,2.79,0,0,0,2,1c1.6,0,2.9-1.18,3-4.7a3.84,3.84,0,0,1-2.78,1.48c-2.18,0-3.7-1.28-3.7-3.94a4,4,0,0,1,4-4.16c2.48,0,4.6,1.92,4.6,6.2,0,4.94-2.38,7-5,7A4.57,4.57,0,0,1,781.65,36.92Zm6.22-6.8c-.24-2.24-1.16-3.2-2.4-3.2-1,0-1.9.86-1.9,2.4s.74,2.28,2,2.28A2.82,2.82,0,0,0,787.87,30.12Z"/><path class="cls-1" d="M797.87,27.34h-6V25.4h8.54v1.4c-3,3.7-3.5,6.36-3.72,11.32h-2.34C794.55,33.6,795.41,30.76,797.87,27.34Z"/><path class="cls-1" d="M807.21,34.84h-5.62V33.28l5-7.88h2.74v7.66H811v1.78h-1.6v3.28h-2.16Zm0-1.78V30.18c0-.74.06-1.9.1-2.64h-.08c-.32.66-.68,1.3-1,2l-2.32,3.54Z"/><path class="cls-1" d="M941,36.24h2.84V27.88h-2.34V26.44a8.55,8.55,0,0,0,2.94-1h1.72V36.24h2.5v1.88H941Z"/><path class="cls-1" d="M950.69,36.92l1.24-1.4a2.79,2.79,0,0,0,2,1c1.6,0,2.9-1.18,3-4.7a3.84,3.84,0,0,1-2.78,1.48c-2.18,0-3.7-1.28-3.7-3.94a4,4,0,0,1,4-4.16c2.48,0,4.6,1.92,4.6,6.2,0,4.94-2.38,7-5,7A4.57,4.57,0,0,1,950.69,36.92Zm6.22-6.8c-.24-2.24-1.16-3.2-2.4-3.2-1,0-1.9.86-1.9,2.4s.74,2.28,2,2.28A2.82,2.82,0,0,0,956.91,30.12Z"/><path class="cls-1" d="M960.83,34.86a3.77,3.77,0,0,1,2.3-3.26v-.08a3.63,3.63,0,0,1-1.76-3c0-2.06,1.64-3.38,3.84-3.38S969,26.54,969,28.6a3.85,3.85,0,0,1-1.7,2.92v.08a3.65,3.65,0,0,1,2.2,3.3c0,2-1.72,3.46-4.3,3.46S960.83,36.92,960.83,34.86Zm6.46,0c0-1.38-1.34-1.88-3.06-2.58a3,3,0,0,0-1.38,2.38,2.16,2.16,0,0,0,2.34,2.1A1.9,1.9,0,0,0,967.29,34.82Zm-.24-6.08a1.8,1.8,0,0,0-1.88-1.94,1.65,1.65,0,0,0-1.74,1.74c0,1.28,1.14,1.84,2.56,2.4A3.11,3.11,0,0,0,967.05,28.74Z"/><path class="cls-1" d="M971,36.78c3.54-3.42,5.76-5.66,5.76-7.6a2,2,0,0,0-2.1-2.2,3.52,3.52,0,0,0-2.48,1.42l-1.28-1.28a5.21,5.21,0,0,1,4.06-2,3.72,3.72,0,0,1,4,3.9c0,2.26-2.1,4.58-4.62,7.24.66-.06,1.5-.14,2.12-.14h3.12v2H971Z"/><path class="cls-1" d="M1110,36.24h2.84V27.88h-2.34V26.44a8.55,8.55,0,0,0,2.94-1h1.72V36.24h2.5v1.88H1110Z"/><path class="cls-1" d="M1119.73,36.92l1.24-1.4a2.79,2.79,0,0,0,2,1c1.6,0,2.9-1.18,3-4.7a3.84,3.84,0,0,1-2.78,1.48c-2.18,0-3.7-1.28-3.7-3.94a4,4,0,0,1,4-4.16c2.48,0,4.6,1.92,4.6,6.2,0,4.94-2.38,7-5,7A4.57,4.57,0,0,1,1119.73,36.92Zm6.22-6.8c-.24-2.24-1.16-3.2-2.4-3.2-1,0-1.9.86-1.9,2.4s.74,2.28,2,2.28A2.82,2.82,0,0,0,1126,30.12Z"/><path class="cls-1" d="M1129.87,34.86a3.77,3.77,0,0,1,2.3-3.26v-.08a3.63,3.63,0,0,1-1.76-3c0-2.06,1.64-3.38,3.84-3.38s3.74,1.38,3.74,3.44a3.85,3.85,0,0,1-1.7,2.92v.08a3.65,3.65,0,0,1,2.2,3.3c0,2-1.72,3.46-4.3,3.46S1129.87,36.92,1129.87,34.86Zm6.46,0c0-1.38-1.34-1.88-3.06-2.58a3,3,0,0,0-1.38,2.38,2.16,2.16,0,0,0,2.34,2.1A1.9,1.9,0,0,0,1136.33,34.82Zm-.24-6.08a1.8,1.8,0,0,0-1.88-1.94,1.65,1.65,0,0,0-1.74,1.74c0,1.28,1.14,1.84,2.56,2.4A3.11,3.11,0,0,0,1136.09,28.74Z"/><path class="cls-1" d="M1139.79,36.6l1.06-1.48a4.26,4.26,0,0,0,3,1.36,2.3,2.3,0,0,0,2.46-2.44,2.19,2.19,0,0,0-2.34-2.38,3.26,3.26,0,0,0-2,.72l-1.1-.7.38-6.28h6.8v1.94h-4.8l-.26,3.08a3.6,3.6,0,0,1,1.68-.42,3.7,3.7,0,0,1,4,4,4.29,4.29,0,0,1-4.48,4.38A5.84,5.84,0,0,1,1139.79,36.6Z"/><path class="cls-1" d="M1279.05,36.24h2.84V27.88h-2.34V26.44a8.55,8.55,0,0,0,2.94-1h1.72V36.24h2.5v1.88h-7.66Z"/><path class="cls-1" d="M1288.77,36.92l1.24-1.4a2.79,2.79,0,0,0,2,1c1.6,0,2.9-1.18,3-4.7a3.84,3.84,0,0,1-2.78,1.48c-2.18,0-3.7-1.28-3.7-3.94a4,4,0,0,1,4-4.16c2.48,0,4.6,1.92,4.6,6.2,0,4.94-2.38,7-5,7A4.57,4.57,0,0,1,1288.77,36.92Zm6.22-6.8c-.24-2.24-1.16-3.2-2.4-3.2-1,0-1.9.86-1.9,2.4s.74,2.28,2,2.28A2.82,2.82,0,0,0,1295,30.12Z"/><path class="cls-1" d="M1299,36.92l1.24-1.4a2.79,2.79,0,0,0,2,1c1.6,0,2.9-1.18,3-4.7a3.84,3.84,0,0,1-2.78,1.48c-2.18,0-3.7-1.28-3.7-3.94a4,4,0,0,1,4-4.16c2.48,0,4.6,1.92,4.6,6.2,0,4.94-2.38,7-5,7A4.57,4.57,0,0,1,1299,36.92Zm6.22-6.8c-.24-2.24-1.16-3.2-2.4-3.2-1,0-1.9.86-1.9,2.4s.74,2.28,2,2.28A2.82,2.82,0,0,0,1305.25,30.12Z"/><path class="cls-1" d="M1309.22,32.14c0-4.94,2.4-7,5-7a4.53,4.53,0,0,1,3.4,1.44l-1.24,1.4a2.75,2.75,0,0,0-2-1c-1.6,0-2.9,1.18-3,4.7a3.76,3.76,0,0,1,2.76-1.5c2.2,0,3.72,1.28,3.72,3.94a4,4,0,0,1-4,4.18C1311.35,38.36,1309.22,36.42,1309.22,32.14Zm6.49,2c0-1.5-.74-2.26-2-2.26a2.84,2.84,0,0,0-2.28,1.46c.24,2.26,1.14,3.22,2.38,3.22C1314.87,36.6,1315.71,35.74,1315.71,34.18Z"/><path class="cls-1" d="M1447.36,36.78c3.55-3.42,5.77-5.66,5.77-7.6A2,2,0,0,0,1451,27a3.52,3.52,0,0,0-2.49,1.42l-1.28-1.28a5.21,5.21,0,0,1,4.07-2,3.72,3.72,0,0,1,4,3.9c0,2.26-2.1,4.58-4.62,7.24.66-.06,1.5-.14,2.12-.14H1456v2h-8.61Z"/><path class="cls-1" d="M1457.66,31.7c0-4.3,1.68-6.54,4.33-6.54s4.32,2.26,4.32,6.54-1.68,6.66-4.32,6.66S1457.66,36,1457.66,31.7Zm6.45,0c0-3.6-.88-4.74-2.12-4.74s-2.12,1.14-2.12,4.74.89,4.86,2.12,4.86S1464.11,35.3,1464.11,31.7Z"/><path class="cls-1" d="M1467.92,31.7c0-4.3,1.68-6.54,4.33-6.54s4.32,2.26,4.32,6.54-1.68,6.66-4.32,6.66S1467.92,36,1467.92,31.7Zm6.45,0c0-3.6-.88-4.74-2.12-4.74s-2.13,1.14-2.13,4.74.9,4.86,2.13,4.86S1474.37,35.3,1474.37,31.7Z"/><path class="cls-1" d="M1478.18,31.7c0-4.3,1.68-6.54,4.32-6.54s4.33,2.26,4.33,6.54-1.68,6.66-4.33,6.66S1478.18,36,1478.18,31.7Zm6.44,0c0-3.6-.87-4.74-2.12-4.74s-2.12,1.14-2.12,4.74.9,4.86,2.12,4.86S1484.62,35.3,1484.62,31.7Z"/><path class="cls-1" d="M1616.4,36.78c3.54-3.42,5.77-5.66,5.77-7.6a2,2,0,0,0-2.11-2.2,3.52,3.52,0,0,0-2.48,1.42l-1.28-1.28a5.21,5.21,0,0,1,4.06-2,3.73,3.73,0,0,1,4,3.9c0,2.26-2.1,4.58-4.63,7.24.66-.06,1.5-.14,2.12-.14H1625v2h-8.61Z"/><path class="cls-1" d="M1626.7,31.7c0-4.3,1.68-6.54,4.32-6.54s4.33,2.26,4.33,6.54-1.68,6.66-4.33,6.66S1626.7,36,1626.7,31.7Zm6.44,0c0-3.6-.88-4.74-2.12-4.74s-2.12,1.14-2.12,4.74.9,4.86,2.12,4.86S1633.14,35.3,1633.14,31.7Z"/><path class="cls-1" d="M1637,31.7c0-4.3,1.68-6.54,4.32-6.54s4.33,2.26,4.33,6.54-1.69,6.66-4.33,6.66S1637,36,1637,31.7Zm6.44,0c0-3.6-.88-4.74-2.12-4.74s-2.12,1.14-2.12,4.74.9,4.86,2.12,4.86S1643.4,35.3,1643.4,31.7Z"/><path class="cls-1" d="M1647.18,36.78c3.54-3.42,5.76-5.66,5.76-7.6a2,2,0,0,0-2.1-2.2,3.52,3.52,0,0,0-2.48,1.42l-1.28-1.28a5.21,5.21,0,0,1,4.06-2,3.73,3.73,0,0,1,4,3.9c0,2.26-2.11,4.58-4.63,7.24.66-.06,1.5-.14,2.12-.14h3.13v2h-8.61Z"/><circle class="cls-1" cx="284" cy="8" r="8"/><circle class="cls-1" cx="454" cy="8" r="8"/><circle class="cls-1" cx="621" cy="8" r="8"/><circle class="cls-1" cx="791" cy="8" r="8"/><circle class="cls-1" cx="960" cy="8" r="8"/><circle class="cls-1" cx="1129" cy="8" r="8"/><circle class="cls-1" cx="1299" cy="8" r="8"/><circle class="cls-1" cx="1466" cy="8" r="8"/><circle class="cls-1" cx="1635" cy="8" r="8"/></g></g></svg>