<svg xmlns="http://www.w3.org/2000/svg" viewBox="0 0 130.94 130.94"><defs><style>.cls-1{fill:#fff;}</style></defs><title>Recurso 1</title><g id="Capa_2" data-name="Capa 2"><g id="Capa_1-2" data-name="Capa 1"><path class="cls-1" d="M57.77,74.05h-17l-3.95,11.1H31.79l14.6-39.36h5.89L66.93,85.15H61.77Zm-1.72-4.67-6.83-19-6.77,19Z"/><path class="cls-1" d="M73.61,81.88c-4.38-4.22-5.38-10.11-5.38-16.38s1-12.1,5.38-16.27A15.55,15.55,0,0,1,84.44,45c7.88,0,14.32,5.38,14.65,13.1H94c-.28-5-4.38-8.44-9.6-8.44a10,10,0,0,0-7.44,3c-3.27,3.38-3.66,8.71-3.66,12.82s.39,9.38,3.66,12.77a10.3,10.3,0,0,0,7.44,3c5.61,0,9.27-3.44,9.66-8.66h5.05c-.39,8-7.05,13.33-14.71,13.33a15.41,15.41,0,0,1-10.83-4.05"/><path class="cls-1" d="M65.47,130.94A65.46,65.46,0,0,1,19.18,19.18a65.47,65.47,0,0,1,92.59,92.59,65.08,65.08,0,0,1-46.3,19.17m0-127.34a61.87,61.87,0,1,0,61.87,61.87A61.94,61.94,0,0,0,65.47,3.6"/></g></g></svg>