<svg xmlns="http://www.w3.org/2000/svg" viewBox="0 0 200.29 132.15"><defs><style>.cls-1{fill:#06222e;}</style></defs><title>Recurso 4</title><g id="Capa_2" data-name="Capa 2"><g id="Capa_1-2" data-name="Capa 1"><polygon class="cls-1" points="200.29 90.53 200.29 83.4 183.13 83.4 183.13 48.03 176 48.03 175.99 90.53 200.29 90.53"/><polygon class="cls-1" points="175.99 96.75 176 129.72 183.13 129.72 183.13 103.89 200.29 103.89 200.29 96.75 175.99 96.75"/><polygon class="cls-1" points="168.22 90.53 168.22 48.03 161.08 48.03 161.08 83.4 126.35 83.4 176.8 2.43 168.39 2.43 105.16 103.89 161.08 103.89 161.08 129.72 168.22 129.72 168.22 96.75 118.02 96.75 121.89 90.53 168.22 90.53"/><polygon class="cls-1" points="160.3 2.43 151.91 2.43 102.3 83.01 102.3 96.61 160.3 2.43"/><path class="cls-1" d="M45.7,132.15c-12,0-21.69-3.67-29.67-11.21l0,0C2.62,108.08,0,91.05,0,66S2.62,23.9,16,11.05C23.89,3.61,33.59,0,45.7,0S67.51,3.61,75.37,11c13.41,12.87,16,29.89,16,55s-2.62,42.09-16,54.93c-8,7.56-17.71,11.23-29.69,11.23M20.94,115.76C27.53,122,35.63,125,45.7,125s18.18-3,24.77-9.26C82.06,104.63,84.26,89.68,84.26,66S82.06,27.34,70.45,16.2C64,10.11,55.9,7.14,45.7,7.14s-18.3,3-24.77,9.08C9.34,27.34,7.14,42.29,7.14,66s2.2,38.63,13.8,49.77m24.76,2.86c-7.33,0-14.15-2.35-18.69-6.47C17,103,15.43,91.05,15.43,66c0-17.41,0-35.42,11.56-46,4.56-4.13,11.37-6.49,18.71-6.49S59.85,15.88,64.39,20C76,30.57,76,48.58,76,66c0,25-1.61,37-11.56,46.14l0,0c-4.54,4.12-11.36,6.47-18.69,6.47m0-98c-5.5,0-10.7,1.73-13.9,4.63-8.57,7.82-9.23,21.8-9.23,40.7,0,25.43,2,34.22,9.25,40.89,3.18,2.88,8.38,4.6,13.88,4.6s10.69-1.72,13.89-4.61c7.26-6.68,9.24-15.48,9.24-40.88,0-18.9-.66-32.88-9.24-40.71-3.19-2.89-8.39-4.62-13.89-4.62"/></g></g></svg>