<svg xmlns="http://www.w3.org/2000/svg" viewBox="0 0 736 150.28"><defs><style>.cls-1{fill:#06222e;}</style></defs><title>Recurso 1</title><g id="Capa_2" data-name="Capa 2"><g id="Capa_1-2" data-name="Capa 1"><rect class="cls-1" x="303.24" width="8.25" height="150.28"/><path class="cls-1" d="M329.32,34.62V24.67h33.73c16.6,0,24.69,6.82,24.73,20.82s-8.13,20.82-24.73,20.82H329.32ZM363.05,8.25c13.22,0,24.2,3.47,31.76,10s11.37,15.87,11.4,27.21S402,65.73,394.56,72.2s-18.27,10.73-31.48,10.74H329.31V74.56h33.74c9.84,0,17.67-2.24,23.28-6.64,6.41-5,9.67-12.57,9.69-22.43s-3.28-17.4-9.69-22.42c-5.61-4.41-13.44-6.64-23.28-6.64H329.32V8.25Zm44.91,142h9.19L385.9,86.55A48.5,48.5,0,0,0,400,78.08c9.29-8.07,14.46-18.79,14.48-32.59s-4.94-25.36-14.23-33.43C391.14,4.17,378.29,0,363.05,0h-42V150.28h8.25V90.48l29.88.16,28.71,59.64H397L368.26,90.45A63.76,63.76,0,0,0,377.92,89Z"/><rect class="cls-1" x="469.02" width="8.25" height="150.28"/><path class="cls-1" d="M495.1,34.62V24.67h33.74c16.59,0,24.68,6.82,24.72,20.82s-8.13,20.82-24.72,20.82H495.1ZM528.84,8.25c13.22,0,24.19,3.47,31.75,10S572,34.15,572,45.49s-4.21,20.24-11.65,26.71-18.27,10.73-31.48,10.74H495.09V74.56h33.75c9.83,0,17.66-2.24,23.28-6.64,6.4-5,9.66-12.57,9.69-22.43s-3.29-17.4-9.69-22.42c-5.62-4.41-13.45-6.64-23.28-6.64H495.1V8.25Zm44.9,142h9.19L551.68,86.55a48.5,48.5,0,0,0,14.07-8.47c9.3-8.07,14.46-18.79,14.49-32.59s-5-25.36-14.24-33.43C556.92,4.17,544.07,0,528.84,0h-42V150.28h8.25V90.48l29.88.16,28.71,59.64h9.11L534,90.45A63.76,63.76,0,0,0,543.7,89Z"/><rect class="cls-1" width="8.25" height="150.28"/><polygon class="cls-1" points="98.19 8.25 98.19 0 17.83 0 17.83 150.28 26.08 150.28 26.08 87.78 90.18 87.78 90.18 79.53 26.08 79.53 26.08 70.95 90.18 70.95 90.18 62.7 26.08 62.7 26.08 24.68 98.19 24.68 98.19 16.43 26.08 16.43 26.08 8.25 98.19 8.25"/><polygon class="cls-1" points="158.29 0 150.07 0 150.04 150.28 158.29 150.28 158.29 0"/><polygon class="cls-1" points="176.12 142.03 176.12 133.85 251.24 133.85 251.24 125.61 176.12 125.61 176.12 85.17 241.82 85.17 241.82 76.93 176.12 76.93 176.12 68.34 241.82 68.34 241.82 60.1 176.12 60.1 176.12 24.67 251.24 24.67 251.25 16.43 176.12 16.43 176.12 8.25 251.26 8.25 251.27 0 167.89 0 167.89 150.28 251.24 150.28 251.24 142.03 176.12 142.03"/><rect class="cls-1" x="634.8" width="8.25" height="150.28"/><polygon class="cls-1" points="660.88 142.03 660.88 133.85 736 133.85 736 125.61 660.88 125.61 660.88 85.17 726.59 85.17 726.59 76.93 660.88 76.93 660.88 68.34 726.58 68.34 726.59 60.1 660.88 60.1 660.88 24.67 736 24.67 736 16.43 660.88 16.43 660.88 8.25 736 8.25 736 0 652.66 0 652.66 150.28 736 150.28 736 142.03 660.88 142.03"/></g></g></svg>