<svg xmlns="http://www.w3.org/2000/svg" viewBox="0 0 377.3 133.36"><defs><style>.cls-1{fill:#fff;}</style></defs><title>Recurso 7</title><g id="Capa_2" data-name="Capa 2"><g id="Capa_1-2" data-name="Capa 1"><path class="cls-1" d="M365.86,56.24c-7.71-8.21-18.48-12.55-31.14-12.55a37.85,37.85,0,0,0-24.41,8.46c.7-7.67,2.22-14,4.52-18.94,4-8.56,10.34-12.72,19.37-12.72,10.14,0,17.25,5.88,18.12,15l.31,3.23h7a40.86,40.86,0,0,0-.81-7.41c-2.59-10.86-12.09-17.93-24.65-17.93-11.75,0-20.69,5.82-25.84,16.84-3.88,8.29-5,17.65-5.55,26.69a188.45,188.45,0,0,0,.64,29.48c.65,6.54,2,12.83,5.16,18.66a28.72,28.72,0,0,0,2.89,4.2c5.25,6.27,12.68,9.58,21.49,9.58s16.18-3.15,21.46-9.12c4.89-5.53,7.59-13.29,7.59-21.85,0-8.4-2.53-16-7.13-21.46-5.25-6.21-13-9.5-22.27-9.5-9.12,0-17.92,4-23,11.72.29-.44.07-2.3.12-2.88.08-1.2.19-2.4.24-3.6,5.91-8.63,14.75-11,24.75-11.28,10.64-.29,19.61,3.56,25.94,10.3s9.5,15.79,9.5,26.53c0,22-15.43,37.35-37.52,37.35-11.56,0-21.89-5-28.34-13.81-8.86-12-10.05-28.53-10.05-43.13,0-23.15,4.7-40.08,14-50.32,6.37-7,15.51-10.61,27.17-10.61,16.54,0,28.88,9.5,31.91,24.06a47.91,47.91,0,0,1,.86,7.49h7.16L375,34.84c-.83-10.34-5.2-19.16-12.64-25.49-7.08-6-16.66-9.35-27-9.35C321.65,0,310.73,4.36,303,13c-10.51,11.59-15.84,30.13-15.84,55.11,0,15.76,1.36,33.72,11.45,47.37,7.8,10.62,20.22,16.71,34.08,16.71,25.88,0,44.66-18.71,44.66-44.49,0-12.59-4-23.46-11.44-31.42M332.64,64c16.41,0,22.26,12.31,22.26,23.82,0,14.48-8.6,23.83-21.91,23.83-14.91,0-21.58-12-21.58-23.83,0-17.56,11-23.82,21.23-23.82"/><rect class="cls-1" x="45.43" y="1.21" width="7.14" height="127.29"/><polygon class="cls-1" points="33.63 1.21 0 25.32 0 34.1 30.34 12.35 30.34 19.78 0 41.8 0 50.62 30.34 28.6 30.34 128.51 37.48 128.51 37.48 1.21 33.63 1.21"/><path class="cls-1" d="M87.07,77.12c7.71,8.21,18.48,12.55,31.14,12.55a33.23,33.23,0,0,0,22.66-8.45c-.7,7.67-.77,14-3.07,18.93-4,8.56-10,12.72-19.07,12.72-10.14,0-17.25-6.18-18.12-15.27l-.31-3.23h-7a39.87,39.87,0,0,0,.81,7.41C96.66,112.64,106.16,120,118.73,120c11.75,0,20.38-5.82,25.53-16.84,3.88-8.29,4-17.65,4.47-26.69a179.9,179.9,0,0,0-.36-28.9,52,52,0,0,0-5.5-19.24,27.24,27.24,0,0,0-2.89-4.2c-5.24-6.26-13-9.58-21.78-9.58S102,17.72,96.74,23.68c-4.9,5.53-7.6,13.29-7.6,21.85,0,8.4,2.53,16,7.13,21.46,5.25,6.22,13,9.5,22.28,9.5,9.11,0,18.89-4.85,23-11.72-.12.21,0,2-.07,3.29-.08,1.65-.28,3.19-.28,3.19-5.92,8.63-13,11-23,11.28-10.64.29-18.38-3.33-25.94-10.3A36.29,36.29,0,0,1,81,45.7c0-22,15.43-37.35,37.53-37.35,11.56,0,24.67,5.87,30.14,13.81,8.22,11.94,8.85,28.53,8.85,43.13,0,23.15-3.51,40.08-12.79,50.32-6.37,7-13.77,10.61-25.43,10.61-16.54,0-30.68-9.8-33.71-24.36a47.73,47.73,0,0,1-.86-7.49H77.58l.31,3.85c.84,10.34,5.21,19.46,12.65,25.79,7.08,6,18.46,9.35,28.78,9.35,13.76,0,22.94-4.36,30.72-13,10.51-11.59,14.63-30.13,14.63-55.11,0-15.76-.15-33.72-10.24-47.37-7.81-10.62-22-16.71-35.88-16.71-25.88,0-44.66,18.71-44.66,44.49,0,12.59,5.69,23.46,13.18,31.42m31.48-7.77c-16.42,0-22.27-12.31-22.27-23.82,0-14.48,8.6-23.83,21.92-23.83,15.7,0,21.57,12,21.57,23.83,0,17.56-11,23.82-21.22,23.82"/><path class="cls-1" d="M191.81,77.12c7.71,8.21,18.48,12.55,31.15,12.55a33.23,33.23,0,0,0,22.66-8.45c-.7,7.67-.77,14-3.07,18.93-4,8.56-10,12.72-19.07,12.72-10.14,0-17.26-6.18-18.12-15.27l-.31-3.23h-7a39.87,39.87,0,0,0,.81,7.41c2.58,10.86,12.08,18.23,24.65,18.23,11.75,0,20.38-5.82,25.53-16.84,3.88-8.29,4-17.65,4.47-26.69a179.9,179.9,0,0,0-.36-28.9,52,52,0,0,0-5.5-19.24,28,28,0,0,0-2.89-4.2c-5.24-6.26-13-9.58-21.78-9.58s-16.18,3.16-21.46,9.12c-4.9,5.53-7.6,13.29-7.6,21.85,0,8.4,2.53,16,7.13,21.46,5.25,6.22,12.95,9.5,22.28,9.5,9.11,0,18.89-4.85,23-11.72-.12.21,0,2-.07,3.29-.08,1.65-.28,3.19-.28,3.19-5.92,8.63-13,11-23,11.28-10.64.29-18.39-3.33-26-10.3A36.32,36.32,0,0,1,185.77,45.7c0-22,15.43-37.35,37.53-37.35,11.56,0,24.66,5.87,30.14,13.81,8.22,11.94,8.85,28.53,8.85,43.13,0,23.15-3.51,40.08-12.79,50.32-6.37,7-13.78,10.61-25.43,10.61-16.54,0-30.68-9.8-33.71-24.36a47.73,47.73,0,0,1-.86-7.49h-7.17l.31,3.85c.83,10.34,5.21,19.46,12.65,25.79,7.08,6,18.46,9.35,28.78,9.35,13.76,0,22.94-4.36,30.72-13,10.51-11.59,14.63-30.13,14.63-55.11,0-15.76-.16-33.72-10.24-47.37-7.81-10.62-22-16.71-35.88-16.71-25.88,0-44.67,18.71-44.67,44.49,0,12.59,5.7,23.46,13.18,31.42m31.49-7.77C206.88,69.35,201,57,201,45.53c0-14.48,8.6-23.83,21.92-23.83,15.7,0,21.57,12,21.57,23.83,0,17.56-11,23.82-21.22,23.82"/></g></g></svg>