<svg xmlns="http://www.w3.org/2000/svg" viewBox="0 0 381.49 132.15"><defs><style>.cls-1{fill:#fff;}</style></defs><title>Recurso 2</title><g id="Capa_2" data-name="Capa 2"><g id="Capa_1-2" data-name="Capa 1"><rect class="cls-1" x="295.29" width="86.2" height="7.14"/><polygon class="cls-1" points="295.29 20.49 344.73 20.49 356.66 20.49 305.69 127.29 313.68 127.29 364.57 20.49 372.3 20.49 322.05 127.29 329.91 127.29 381.49 17.72 381.49 13.35 295.29 13.35 295.29 20.49"/><rect class="cls-1" x="45.43" width="7.14" height="127.29"/><polygon class="cls-1" points="33.63 0 0 24.1 0 32.88 30.34 11.14 30.34 18.57 0 40.59 0 49.41 30.34 27.39 30.34 127.29 37.48 127.29 37.48 0 33.63 0"/><polygon class="cls-1" points="283.55 88.11 283.55 80.97 266.38 80.97 266.38 45.6 259.25 45.6 259.25 88.11 283.55 88.11"/><polygon class="cls-1" points="259.25 94.32 259.25 127.29 266.38 127.29 266.38 101.46 283.55 101.46 283.55 94.32 259.25 94.32"/><polygon class="cls-1" points="251.47 88.11 251.47 45.6 244.34 45.6 244.34 80.97 209.6 80.97 260.05 0 251.64 0 188.42 101.46 244.34 101.46 244.34 127.29 251.47 127.29 251.47 94.32 201.27 94.32 205.14 88.11 251.47 88.11"/><polygon class="cls-1" points="243.55 0 235.16 0 185.56 80.58 185.56 94.19 243.55 0"/><path class="cls-1" d="M87.07,75.91c7.71,8.21,18.48,12.54,31.14,12.54A33.18,33.18,0,0,0,140.87,80c-.7,7.67-.77,14-3.07,18.94-4,8.56-10,12.72-19.07,12.72-10.14,0-17.25-6.18-18.12-15.28l-.31-3.23h-7a39.59,39.59,0,0,0,.81,7.41c2.58,10.87,12.08,18.24,24.65,18.24,11.75,0,20.38-5.83,25.53-16.84,3.88-8.29,4-17.65,4.47-26.69a179.89,179.89,0,0,0-.36-28.9,52,52,0,0,0-5.5-19.24,27.24,27.24,0,0,0-2.89-4.2c-5.24-6.27-13-9.58-21.78-9.58S102,16.5,96.74,22.46c-4.9,5.53-7.6,13.29-7.6,21.85,0,8.4,2.53,16,7.13,21.47,5.25,6.21,13,9.5,22.28,9.5,9.11,0,18.89-4.85,23-11.72-.12.21,0,2-.07,3.29-.08,1.65-.28,3.19-.28,3.19-5.92,8.63-13,11-23,11.28C107.57,81.61,99.83,78,92.27,71A36.29,36.29,0,0,1,81,44.49c0-22,15.43-37.35,37.53-37.35,11.56,0,24.67,5.86,30.14,13.81,8.22,11.93,8.85,28.53,8.85,43.13,0,23.15-3.51,40.08-12.79,50.31-6.37,7-13.77,10.62-25.43,10.62-16.54,0-30.68-9.8-33.71-24.36a47.93,47.93,0,0,1-.86-7.5H77.58L77.89,97c.84,10.34,5.21,19.46,12.65,25.79,7.08,6,18.46,9.35,28.78,9.35,13.76,0,22.94-4.36,30.72-13,10.51-11.59,14.63-30.13,14.63-55.11,0-15.77-.15-33.72-10.24-47.37C146.62,6.09,132.4,0,118.55,0,92.67,0,73.89,18.71,73.89,44.49c0,12.59,5.69,23.46,13.18,31.42m31.48-7.77c-16.42,0-22.27-12.31-22.27-23.83,0-14.47,8.6-23.82,21.92-23.82,15.7,0,21.57,12,21.57,23.82,0,17.57-11,23.83-21.22,23.83"/></g></g></svg>