<svg xmlns="http://www.w3.org/2000/svg" viewBox="0 0 371.67 132.15"><defs><style>.cls-1{fill:#fff;}</style></defs><title>Recurso 14</title><g id="Capa_2" data-name="Capa 2"><g id="Capa_1-2" data-name="Capa 1"><path class="cls-1" d="M146.55,132.15c-12,0-21.69-3.67-29.67-11.21l0,0c-13.39-12.84-16-29.87-16-54.93s2.62-42.09,16-54.94c7.88-7.44,17.59-11,29.69-11s21.81,3.61,29.67,11c13.41,12.87,16,29.89,16,55s-2.62,42.09-16,54.93c-8,7.56-17.7,11.23-29.69,11.23m-24.76-16.39c6.59,6.23,14.69,9.25,24.76,9.25s18.18-3,24.77-9.26c11.59-11.12,13.8-26.07,13.8-49.76S182.91,27.34,171.3,16.2c-6.45-6.09-14.55-9.06-24.75-9.06s-18.3,3-24.77,9.08C110.19,27.34,108,42.29,108,66s2.2,38.63,13.8,49.77m24.76,2.86c-7.33,0-14.14-2.35-18.69-6.47-10-9.15-11.58-21.1-11.58-46.16,0-17.41,0-35.42,11.57-46,4.56-4.13,11.37-6.49,18.7-6.49S160.7,15.88,165.24,20c11.58,10.57,11.58,28.58,11.58,46,0,25-1.6,37-11.55,46.14l0,0c-4.54,4.12-11.35,6.47-18.69,6.47m0-98c-5.5,0-10.7,1.73-13.9,4.63-8.57,7.82-9.23,21.8-9.23,40.7,0,25.43,2,34.22,9.25,40.89,3.18,2.88,8.38,4.61,13.88,4.61s10.69-1.73,13.9-4.62c7.25-6.68,9.24-15.48,9.24-40.88,0-18.9-.67-32.88-9.25-40.71-3.18-2.89-8.38-4.62-13.89-4.62"/><path class="cls-1" d="M.17,111.92V122.4l14.68-15.79L54.37,64.1c7.89-8.41,11.89-17,11.89-25.68,0-14.49-9.57-23.86-24.37-23.86-15.75,0-25.25,9.38-26.49,25.82,0,.07-.21,5.63-.1,7.33h7.1V44.14C22.4,29.25,29,21.7,41.89,21.7c10.79,0,17.23,6.25,17.23,16.72,0,6.76-3.35,13.75-10,20.8Z"/><path class="cls-1" d="M16.85,123.8l6.93-6.74H83.6v-7.13H31.17l35-37.68c10.37-11,15.2-21.78,15.2-34,0-22.15-15.79-37-39.29-37-12.37,0-22.83,3.86-30.26,11.15C4.08,19.93,0,30.92,0,44.14v3.57H7.15c-.16-1.7.11-7.27.12-7.34,1.41-20.11,14.19-32,34.79-32,19.53,0,32.15,11.74,32.15,29.9,0,10.43-4.09,19.4-13.27,29.12L23.6,107.59h-.05l-20,20h0L.17,130.92H83.6V123.8Z"/><rect class="cls-1" x="254.93" y="2.43" width="7.14" height="127.29"/><polygon class="cls-1" points="243.14 2.43 209.51 26.53 209.51 35.31 239.85 13.57 239.85 20.99 209.51 43.02 209.51 51.83 239.85 29.81 239.85 129.72 246.99 129.72 246.99 2.43 243.14 2.43"/><path class="cls-1" d="M360.23,56.24c-7.71-8.21-18.48-12.55-31.14-12.55a37.85,37.85,0,0,0-24.41,8.46c.7-7.67,2.22-14,4.52-18.94,4-8.56,10.34-12.72,19.37-12.72,10.14,0,17.25,5.88,18.12,15l.31,3.23h7a40.86,40.86,0,0,0-.81-7.41c-2.59-10.86-12.09-17.93-24.65-17.93-11.75,0-20.69,5.82-25.84,16.84-3.88,8.29-5,17.65-5.55,26.69a188.45,188.45,0,0,0,.64,29.48c.65,6.54,2,12.83,5.16,18.66a28.72,28.72,0,0,0,2.89,4.2c5.25,6.27,12.68,9.58,21.49,9.58s16.18-3.15,21.46-9.12c4.89-5.53,7.59-13.29,7.59-21.85,0-8.4-2.53-16-7.13-21.46-5.25-6.21-12.95-9.5-22.27-9.5-9.12,0-17.92,4-23,11.72.29-.44.07-2.3.12-2.88.08-1.2.19-2.4.24-3.6,5.91-8.63,14.75-11,24.75-11.28,10.64-.29,19.61,3.56,25.94,10.3s9.5,15.79,9.5,26.53c0,22-15.43,37.35-37.52,37.35-11.56,0-21.89-5-28.34-13.81-8.86-12-10.05-28.53-10.05-43.13,0-23.15,4.7-40.08,14-50.32,6.37-7,15.51-10.61,27.17-10.61,16.54,0,28.88,9.5,31.91,24.06a47.91,47.91,0,0,1,.86,7.49h7.16l-.31-3.85c-.83-10.34-5.2-19.16-12.64-25.49-7.08-6-16.66-9.35-27-9.35C316,0,305.1,4.36,297.32,13c-10.51,11.59-15.84,30.13-15.84,55.11,0,15.76,1.36,33.72,11.45,47.37,7.8,10.62,20.22,16.71,34.08,16.71,25.88,0,44.66-18.71,44.66-44.49,0-12.59-4-23.46-11.44-31.42M327,64c16.41,0,22.26,12.31,22.26,23.82,0,14.48-8.6,23.83-21.91,23.83-14.91,0-21.58-12-21.58-23.83,0-17.56,11-23.82,21.23-23.82"/></g></g></svg>