<svg xmlns="http://www.w3.org/2000/svg" viewBox="0 0 1920 38.36"><defs><style>.cls-1{fill:#f26d32;}</style></defs><title>Recurso 3</title><g id="Capa_2" data-name="Capa 2"><g id="Capa_1-2" data-name="Capa 1"><rect class="cls-1" y="7" width="1920" height="2"/><path class="cls-1" d="M348.61,36.78c3.54-3.42,5.76-5.66,5.76-7.6a2,2,0,0,0-2.1-2.2,3.52,3.52,0,0,0-2.48,1.42l-1.28-1.28a5.21,5.21,0,0,1,4.06-2,3.72,3.72,0,0,1,4,3.9c0,2.26-2.1,4.58-4.62,7.24.66-.06,1.5-.14,2.12-.14h3.12v2h-8.6Z"/><path class="cls-1" d="M358.91,31.7c0-4.3,1.68-6.54,4.32-6.54s4.32,2.26,4.32,6.54-1.68,6.66-4.32,6.66S358.91,36,358.91,31.7Zm6.44,0c0-3.6-.88-4.74-2.12-4.74s-2.12,1.14-2.12,4.74.9,4.86,2.12,4.86S365.35,35.3,365.35,31.7Z"/><path class="cls-1" d="M369.17,31.7c0-4.3,1.68-6.54,4.32-6.54s4.32,2.26,4.32,6.54-1.68,6.66-4.32,6.66S369.17,36,369.17,31.7Zm6.44,0c0-3.6-.88-4.74-2.12-4.74s-2.12,1.14-2.12,4.74.9,4.86,2.12,4.86S375.61,35.3,375.61,31.7Z"/><path class="cls-1" d="M379.11,36.6l1.06-1.48a4.26,4.26,0,0,0,3,1.36A2.3,2.3,0,0,0,385.61,34a2.19,2.19,0,0,0-2.34-2.38,3.26,3.26,0,0,0-2,.72l-1.1-.7.38-6.28h6.8v1.94h-4.8l-.26,3.08a3.6,3.6,0,0,1,1.68-.42,3.7,3.7,0,0,1,4,4,4.29,4.29,0,0,1-4.48,4.38A5.84,5.84,0,0,1,379.11,36.6Z"/><path class="cls-1" d="M517.65,36.78c3.54-3.42,5.76-5.66,5.76-7.6a2,2,0,0,0-2.1-2.2,3.52,3.52,0,0,0-2.48,1.42l-1.28-1.28a5.21,5.21,0,0,1,4.06-2,3.72,3.72,0,0,1,4,3.9c0,2.26-2.1,4.58-4.62,7.24.66-.06,1.5-.14,2.12-.14h3.12v2h-8.6Z"/><path class="cls-1" d="M528,31.7c0-4.3,1.68-6.54,4.32-6.54s4.32,2.26,4.32,6.54-1.68,6.66-4.32,6.66S528,36,528,31.7Zm6.44,0c0-3.6-.88-4.74-2.12-4.74s-2.12,1.14-2.12,4.74.9,4.86,2.12,4.86S534.39,35.3,534.39,31.7Z"/><path class="cls-1" d="M538.21,31.7c0-4.3,1.68-6.54,4.32-6.54s4.32,2.26,4.32,6.54-1.68,6.66-4.32,6.66S538.21,36,538.21,31.7Zm6.44,0c0-3.6-.88-4.74-2.12-4.74s-2.12,1.14-2.12,4.74.9,4.86,2.12,4.86S544.65,35.3,544.65,31.7Z"/><path class="cls-1" d="M548.49,34.86a3.77,3.77,0,0,1,2.3-3.26v-.08a3.63,3.63,0,0,1-1.76-3c0-2.06,1.64-3.38,3.84-3.38s3.74,1.38,3.74,3.44a3.85,3.85,0,0,1-1.7,2.92v.08a3.65,3.65,0,0,1,2.2,3.3c0,2-1.72,3.46-4.3,3.46S548.49,36.92,548.49,34.86Zm6.46,0c0-1.38-1.34-1.88-3.06-2.58a3,3,0,0,0-1.38,2.38,2.16,2.16,0,0,0,2.34,2.1A1.9,1.9,0,0,0,555,34.82Zm-.24-6.08a1.8,1.8,0,0,0-1.88-1.94,1.65,1.65,0,0,0-1.74,1.74c0,1.28,1.14,1.84,2.56,2.4A3.11,3.11,0,0,0,554.71,28.74Z"/><path class="cls-1" d="M686.69,36.78c3.54-3.42,5.76-5.66,5.76-7.6a2,2,0,0,0-2.1-2.2,3.52,3.52,0,0,0-2.48,1.42l-1.28-1.28a5.21,5.21,0,0,1,4.06-2,3.72,3.72,0,0,1,4,3.9c0,2.26-2.1,4.58-4.62,7.24.66-.06,1.5-.14,2.12-.14h3.12v2h-8.6Z"/><path class="cls-1" d="M697,31.7c0-4.3,1.68-6.54,4.32-6.54s4.32,2.26,4.32,6.54-1.68,6.66-4.32,6.66S697,36,697,31.7Zm6.44,0c0-3.6-.88-4.74-2.12-4.74s-2.12,1.14-2.12,4.74.9,4.86,2.12,4.86S703.43,35.3,703.43,31.7Z"/><path class="cls-1" d="M707.93,36.24h2.84V27.88h-2.34V26.44a8.55,8.55,0,0,0,2.94-1h1.72V36.24h2.5v1.88h-7.66Z"/><path class="cls-1" d="M722.69,34.84h-5.62V33.28l5-7.88h2.74v7.66h1.6v1.78h-1.6v3.28h-2.16Zm0-1.78V30.18c0-.74.06-1.9.1-2.64h-.08c-.32.66-.68,1.3-1,2l-2.32,3.54Z"/><path class="cls-1" d="M855.73,36.78c3.54-3.42,5.76-5.66,5.76-7.6a2,2,0,0,0-2.1-2.2,3.52,3.52,0,0,0-2.48,1.42l-1.28-1.28a5.21,5.21,0,0,1,4.06-2,3.72,3.72,0,0,1,4,3.9c0,2.26-2.1,4.58-4.62,7.24.66-.06,1.5-.14,2.12-.14h3.12v2h-8.6Z"/><path class="cls-1" d="M866,31.7c0-4.3,1.68-6.54,4.32-6.54s4.32,2.26,4.32,6.54-1.68,6.66-4.32,6.66S866,36,866,31.7Zm6.44,0c0-3.6-.88-4.74-2.12-4.74s-2.12,1.14-2.12,4.74.9,4.86,2.12,4.86S872.47,35.3,872.47,31.7Z"/><path class="cls-1" d="M877,36.24h2.84V27.88h-2.34V26.44a8.55,8.55,0,0,0,2.94-1h1.72V36.24h2.5v1.88H877Z"/><path class="cls-1" d="M886.23,36.6l1.06-1.48a4.26,4.26,0,0,0,3,1.36A2.3,2.3,0,0,0,892.73,34a2.19,2.19,0,0,0-2.34-2.38,3.26,3.26,0,0,0-2,.72l-1.1-.7.38-6.28h6.8v1.94h-4.8l-.26,3.08a3.6,3.6,0,0,1,1.68-.42,3.7,3.7,0,0,1,4,4,4.29,4.29,0,0,1-4.48,4.38A5.84,5.84,0,0,1,886.23,36.6Z"/><path class="cls-1" d="M1024.77,36.78c3.54-3.42,5.76-5.66,5.76-7.6a2,2,0,0,0-2.1-2.2A3.52,3.52,0,0,0,1026,28.4l-1.28-1.28a5.21,5.21,0,0,1,4.06-2,3.72,3.72,0,0,1,4,3.9c0,2.26-2.1,4.58-4.62,7.24.66-.06,1.5-.14,2.12-.14h3.12v2h-8.6Z"/><path class="cls-1" d="M1035.07,31.7c0-4.3,1.68-6.54,4.32-6.54s4.32,2.26,4.32,6.54-1.68,6.66-4.32,6.66S1035.07,36,1035.07,31.7Zm6.44,0c0-3.6-.88-4.74-2.12-4.74s-2.12,1.14-2.12,4.74.9,4.86,2.12,4.86S1041.51,35.3,1041.51,31.7Z"/><path class="cls-1" d="M1046,36.24h2.84V27.88h-2.34V26.44a8.55,8.55,0,0,0,2.94-1h1.72V36.24h2.5v1.88H1046Z"/><path class="cls-1" d="M1055.67,32.14c0-4.94,2.4-7,5-7a4.53,4.53,0,0,1,3.4,1.44l-1.24,1.4a2.75,2.75,0,0,0-2-1c-1.6,0-2.9,1.18-3,4.7a3.76,3.76,0,0,1,2.76-1.5c2.2,0,3.72,1.28,3.72,3.94a4,4,0,0,1-4,4.18C1057.79,38.36,1055.67,36.42,1055.67,32.14Zm6.48,2c0-1.5-.74-2.26-2-2.26a2.84,2.84,0,0,0-2.28,1.46c.24,2.26,1.14,3.22,2.38,3.22C1061.31,36.6,1062.15,35.74,1062.15,34.18Z"/><path class="cls-1" d="M1193.81,36.78c3.54-3.42,5.76-5.66,5.76-7.6a2,2,0,0,0-2.1-2.2A3.52,3.52,0,0,0,1195,28.4l-1.28-1.28a5.21,5.21,0,0,1,4.06-2,3.72,3.72,0,0,1,4,3.9c0,2.26-2.1,4.58-4.62,7.24.66-.06,1.5-.14,2.12-.14h3.12v2h-8.6Z"/><path class="cls-1" d="M1204.11,31.7c0-4.3,1.68-6.54,4.32-6.54s4.32,2.26,4.32,6.54-1.68,6.66-4.32,6.66S1204.11,36,1204.11,31.7Zm6.44,0c0-3.6-.88-4.74-2.12-4.74s-2.12,1.14-2.12,4.74.9,4.86,2.12,4.86S1210.55,35.3,1210.55,31.7Z"/><path class="cls-1" d="M1215.05,36.24h2.84V27.88h-2.34V26.44a8.55,8.55,0,0,0,2.94-1h1.72V36.24h2.5v1.88h-7.66Z"/><path class="cls-1" d="M1230.73,27.34h-6V25.4h8.54v1.4c-3,3.7-3.5,6.36-3.72,11.32h-2.34C1227.41,33.6,1228.27,30.76,1230.73,27.34Z"/><path class="cls-1" d="M1362.84,36.78c3.55-3.42,5.77-5.66,5.77-7.6a2,2,0,0,0-2.1-2.2A3.52,3.52,0,0,0,1364,28.4l-1.28-1.28a5.21,5.21,0,0,1,4.06-2,3.72,3.72,0,0,1,4,3.9c0,2.26-2.1,4.58-4.62,7.24.66-.06,1.5-.14,2.12-.14h3.12v2h-8.61Z"/><path class="cls-1" d="M1373.14,31.7c0-4.3,1.69-6.54,4.33-6.54s4.32,2.26,4.32,6.54-1.68,6.66-4.32,6.66S1373.14,36,1373.14,31.7Zm6.45,0c0-3.6-.88-4.74-2.12-4.74s-2.12,1.14-2.12,4.74.9,4.86,2.12,4.86S1379.59,35.3,1379.59,31.7Z"/><path class="cls-1" d="M1384.08,36.24h2.85V27.88h-2.35V26.44a8.61,8.61,0,0,0,3-1h1.72V36.24h2.5v1.88h-7.67Z"/><path class="cls-1" d="M1393.68,34.86A3.78,3.78,0,0,1,1396,31.6v-.08a3.62,3.62,0,0,1-1.77-3c0-2.06,1.65-3.38,3.85-3.38s3.74,1.38,3.74,3.44a3.85,3.85,0,0,1-1.7,2.92v.08a3.65,3.65,0,0,1,2.2,3.3c0,2-1.72,3.46-4.31,3.46S1393.68,36.92,1393.68,34.86Zm6.47,0c0-1.38-1.34-1.88-3.07-2.58a3,3,0,0,0-1.37,2.38,2.16,2.16,0,0,0,2.33,2.1A1.9,1.9,0,0,0,1400.15,34.82Zm-.24-6.08A1.8,1.8,0,0,0,1398,26.8a1.64,1.64,0,0,0-1.74,1.74c0,1.28,1.13,1.84,2.56,2.4A3.11,3.11,0,0,0,1399.91,28.74Z"/><path class="cls-1" d="M1531.88,36.78c3.54-3.42,5.77-5.66,5.77-7.6a2,2,0,0,0-2.11-2.2,3.52,3.52,0,0,0-2.48,1.42l-1.28-1.28a5.21,5.21,0,0,1,4.06-2,3.72,3.72,0,0,1,4,3.9c0,2.26-2.1,4.58-4.62,7.24.66-.06,1.5-.14,2.12-.14h3.12v2h-8.61Z"/><path class="cls-1" d="M1542.18,31.7c0-4.3,1.68-6.54,4.32-6.54s4.33,2.26,4.33,6.54-1.68,6.66-4.33,6.66S1542.18,36,1542.18,31.7Zm6.44,0c0-3.6-.87-4.74-2.12-4.74s-2.12,1.14-2.12,4.74.9,4.86,2.12,4.86S1548.62,35.3,1548.62,31.7Z"/><path class="cls-1" d="M1552.4,36.78c3.54-3.42,5.77-5.66,5.77-7.6a2,2,0,0,0-2.11-2.2,3.52,3.52,0,0,0-2.48,1.42l-1.28-1.28a5.21,5.21,0,0,1,4.06-2,3.73,3.73,0,0,1,4,3.9c0,2.26-2.1,4.58-4.63,7.24.66-.06,1.5-.14,2.12-.14H1561v2h-8.61Z"/><path class="cls-1" d="M1562.7,31.7c0-4.3,1.68-6.54,4.32-6.54s4.33,2.26,4.33,6.54-1.68,6.66-4.33,6.66S1562.7,36,1562.7,31.7Zm6.44,0c0-3.6-.88-4.74-2.12-4.74s-2.12,1.14-2.12,4.74.9,4.86,2.12,4.86S1569.14,35.3,1569.14,31.7Z"/><circle class="cls-1" cx="368" cy="8" r="8"/><circle class="cls-1" cx="537.29" cy="8" r="8"/><circle class="cls-1" cx="706.57" cy="8" r="8"/><circle class="cls-1" cx="875.86" cy="8" r="8"/><circle class="cls-1" cx="1045.14" cy="8" r="8"/><circle class="cls-1" cx="1214.43" cy="8" r="8"/><circle class="cls-1" cx="1383.71" cy="8" r="8"/><circle class="cls-1" cx="1553" cy="8" r="8"/></g></g></svg>