<svg xmlns="http://www.w3.org/2000/svg" viewBox="0 0 847.62 204.74"><defs><style>.cls-1{fill:#fff;}</style></defs><title>Recurso 1</title><g id="Capa_2" data-name="Capa 2"><g id="Capa_1-2" data-name="Capa 1"><rect class="cls-1" width="11.03" height="201.05"/><polygon class="cls-1" points="131.37 11.04 131.37 0 23.85 0 23.85 201.05 34.88 201.05 34.88 117.43 120.65 117.43 120.65 106.4 34.88 106.4 34.88 94.92 120.65 94.92 120.65 83.89 34.88 83.89 34.88 33.01 131.37 33.01 131.37 21.98 34.88 21.98 34.88 11.04 131.37 11.04"/><path class="cls-1" d="M177.56,0H259.8c34.59,0,60.12,20.13,60.12,51.89,0,19.29-10.21,37.72-28.93,44.52,20.7,6.81,33.46,27.23,33.46,48.49,0,34.32-26.94,56.15-64.37,56.15H177.56ZM258.1,85.64c21,0,36-9.93,36-31.76,0-21-16.45-31.48-36.3-31.48H202.23V85.64Zm.57,92.16c22.11,0,40-10.78,40-34.6,0-22.4-17.58-35.44-40-35.44H202.23v70Z"/><polygon class="cls-1" points="395.91 0 395.91 177.51 492.6 177.51 492.6 201.05 370.67 201.05 370.67 0 395.91 0"/><path class="cls-1" d="M516.14,130.44V0h25.23V128.74c0,31.48,13.33,52.46,48.21,52.46s48.21-21,48.21-52.46V0H663V130.44c0,48.78-28.92,74.3-73.44,74.3s-73.44-25.52-73.44-74.3"/><polygon class="cls-1" points="847.62 0 847.62 23.25 741.28 23.25 741.28 85.07 834.29 85.07 834.29 108.89 741.28 108.89 741.28 177.8 847.62 177.8 847.62 201.05 716.05 201.05 716.05 0 847.62 0"/></g></g></svg>