<svg xmlns="http://www.w3.org/2000/svg" viewBox="0 0 743.27 208.99"><defs><style>.cls-1{fill:#fff;}</style></defs><title>Recurso 1</title><g id="Capa_2" data-name="Capa 2"><g id="Capa_1-2" data-name="Capa 1"><rect class="cls-1" y="3.97" width="11.03" height="201.05"/><polygon class="cls-1" points="131.37 15.01 131.37 3.97 23.85 3.97 23.85 205.02 34.88 205.02 34.88 121.4 120.65 121.4 120.65 110.37 34.88 110.37 34.88 98.89 120.65 98.89 120.65 87.86 34.88 87.86 34.88 36.98 131.37 36.98 131.37 25.95 34.88 25.95 34.88 15.01 131.37 15.01"/><path class="cls-1" d="M177.56,134.41V4H202.8V132.71c0,31.48,13.33,52.46,48.21,52.46s48.2-21,48.2-52.46V4h25.24V134.41c0,48.77-28.92,74.3-73.44,74.3s-73.45-25.53-73.45-74.3"/><polygon class="cls-1" points="528.9 3.97 528.9 205.02 500.54 205.02 401.86 34.03 401.86 205.02 377.47 205.02 377.47 3.97 410.65 3.97 504.51 166.46 504.51 3.97 528.9 3.97"/><path class="cls-1" d="M600.92,185.45c-20.7-21.55-25.52-48.2-25.52-80.81s4.82-59.27,25.52-80.82C616,8.22,636.08,0,659.33,0s43.39,8.22,58.42,23.82c20.7,21.55,25.52,48.21,25.52,80.82s-4.82,59.26-25.52,80.81c-15,15.6-35.16,23.54-58.42,23.54s-43.38-7.94-58.41-23.54m99.53-17.58c15.31-17,16.73-40.55,16.73-63.23s-1.42-46.22-16.73-63.24c-10.21-11.06-23.82-17.3-41.12-17.3s-30.9,6.24-41.11,17.3c-15.32,17-16.73,40.55-16.73,63.24s1.41,46.22,16.73,63.23c10.21,11.06,23.82,17,41.11,17s30.91-6,41.12-17"/></g></g></svg>