<svg xmlns="http://www.w3.org/2000/svg" viewBox="0 0 128 128"><defs><style>.cls-1{fill:#fff;}</style></defs><title>Recurso 1</title><g id="Capa_2" data-name="Capa 2"><g id="Capa_1-2" data-name="Capa 1"><path class="cls-1" d="M76.23,74.64A1.24,1.24,0,0,1,75,75.89H53a1.24,1.24,0,0,1-1.23-1.25v-.76A1.24,1.24,0,0,1,53,72.63H75a1.24,1.24,0,0,1,1.23,1.25Zm0,6.84A1.24,1.24,0,0,1,75,82.73H53a1.24,1.24,0,0,1-1.23-1.25v-.76A1.24,1.24,0,0,1,53,79.47H75a1.24,1.24,0,0,1,1.23,1.25Zm0,6.84A1.24,1.24,0,0,1,75,89.57H53a1.24,1.24,0,0,1-1.23-1.25v-.76A1.24,1.24,0,0,1,53,86.31H75a1.24,1.24,0,0,1,1.23,1.25Zm0,6.84h0V96a2.89,2.89,0,0,1-1,2.24,3,3,0,0,1-2,.71H54.76a3,3,0,0,1-2-.71,2.89,2.89,0,0,1-1-2.24v-.84h0V94.4A1.24,1.24,0,0,1,53,93.15H75a1.24,1.24,0,0,1,1.23,1.25ZM51.77,64.22V50.31A3.46,3.46,0,0,1,52,48.73,32.84,32.84,0,0,1,55.49,45a47.9,47.9,0,0,0,4.32-4.59A8.4,8.4,0,0,0,61,36.24h6.1a8.4,8.4,0,0,0,1.14,4.21A47.9,47.9,0,0,0,72.51,45,32.84,32.84,0,0,1,76,48.73a3.46,3.46,0,0,1,.26,1.58V67a2.27,2.27,0,0,1-2.42,2.08H54.19A2.27,2.27,0,0,1,51.77,67Zm7-35.07a0,0,0,0,1,0,0H69.21a0,0,0,0,1,0,0v3.47a0,0,0,0,1,0,0H58.79a0,0,0,0,1,0,0Zm21,35.07h0v-.76h0V50.31A6.85,6.85,0,0,0,79,46.94,27,27,0,0,0,75,42.47a46.2,46.2,0,0,1-4-4.2,6.46,6.46,0,0,1-.43-2.3,3.64,3.64,0,0,0,2.21-3.35V29.06a3.52,3.52,0,0,0-3.56-3.53H58.79a3.52,3.52,0,0,0-3.56,3.53v3.56A3.64,3.64,0,0,0,57.44,36a6.46,6.46,0,0,1-.43,2.3,46.2,46.2,0,0,1-4,4.2A27,27,0,0,0,49,46.94a6.85,6.85,0,0,0-.73,3.37V63.46h0v.76h0V67a5.46,5.46,0,0,0,1.33,3.56,4.87,4.87,0,0,0-1.33,3.35v.76a4.88,4.88,0,0,0,1.06,3,4.88,4.88,0,0,0-1.06,3v.76a4.88,4.88,0,0,0,1.06,3,4.88,4.88,0,0,0-1.06,3v.76a4.88,4.88,0,0,0,1.06,3,4.88,4.88,0,0,0-1.06,3v.76h0v.78a6.5,6.5,0,0,0,6.51,6.53H73.24a6.5,6.5,0,0,0,6.51-6.53v-.78h0V94.4a4.88,4.88,0,0,0-1.06-3,4.88,4.88,0,0,0,1.06-3v-.76a4.88,4.88,0,0,0-1.06-3,4.88,4.88,0,0,0,1.06-3v-.76a4.88,4.88,0,0,0-1.06-3,4.88,4.88,0,0,0,1.06-3v-.76a4.87,4.87,0,0,0-1.33-3.35A5.46,5.46,0,0,0,79.75,67Z"/><path class="cls-1" d="M64,3.52A60.48,60.48,0,1,0,124.48,64,60.55,60.55,0,0,0,64,3.52M64,128A64,64,0,0,1,18.74,18.75a64,64,0,1,1,90.51,90.51A63.59,63.59,0,0,1,64,128"/></g></g></svg>