<svg xmlns="http://www.w3.org/2000/svg" viewBox="0 0 128 128"><defs><style>.cls-1{fill:#fff;}</style></defs><title>Recurso 7</title><g id="Capa_2" data-name="Capa 2"><g id="Capa_1-2" data-name="Capa 1"><path class="cls-1" d="M64,3.52A60.48,60.48,0,1,0,124.48,64,60.55,60.55,0,0,0,64,3.52M64,128A64,64,0,0,1,18.74,18.74a64,64,0,1,1,90.51,90.51A63.56,63.56,0,0,1,64,128"/><path class="cls-1" d="M85.84,89.23H40.71a13.84,13.84,0,0,1-14-14.34,13.67,13.67,0,0,1,12.2-13l2-.21s0,0,0,0l-.39-2a17,17,0,0,1-.35-3.49,17.46,17.46,0,0,1,33.23-7.5l.8,1.69h0l1.67-.83a10,10,0,0,1,4.51-1.07A10.07,10.07,0,0,1,90.5,58.58a9.82,9.82,0,0,1-.16,1.78L90.06,62h0l1.54.48a13.62,13.62,0,0,1,9.65,13c0,7.34-7.1,13.54-15.42,13.75m8.31-29.78q0-.44,0-.87A13.75,13.75,0,0,0,80.44,44.84a13.42,13.42,0,0,0-4.5.76A21.14,21.14,0,0,0,36.53,56.23a20.39,20.39,0,0,0,.13,2.34,17.33,17.33,0,0,0-13.6,17.09A17.55,17.55,0,0,0,40.7,92.91H85.84c10.75-.26,19.1-7.94,19.1-17.37A17.28,17.28,0,0,0,94.15,59.45"/><path class="cls-1" d="M52.82,77.09A8.5,8.5,0,0,1,44,68.37c0-5.36,3.57-9.1,8.68-9.1a8.16,8.16,0,0,1,4.16.89v3.38a7.11,7.11,0,0,0-3.93-1c-3.25,0-5.34,2.31-5.34,5.89a5.32,5.32,0,0,0,5.58,5.41,7.24,7.24,0,0,0,3.64-1V76.1a8.94,8.94,0,0,1-4,1"/><path class="cls-1" d="M68.53,62.36a5.64,5.64,0,0,0-5.77,5.89,5.54,5.54,0,0,0,5.75,5.82,5.86,5.86,0,0,0,0-11.71m0,14.92c-5.41,0-9.34-3.83-9.34-9.1s3.94-9.06,9.36-9.06S77.89,63,77.89,68a9,9,0,0,1-9.36,9.27"/><path class="cls-1" d="M81.63,74.32H79.08a3.56,3.56,0,0,1,3.86-3.81,3.51,3.51,0,0,1,3.68,3.38c0,2-1.52,3.37-3,4.76h3.3v2.08h-8l4.27-4.93a3.27,3.27,0,0,0,.91-1.91,1.14,1.14,0,0,0-1.21-1.19c-.92,0-1.21.66-1.21,1.62"/></g></g></svg>