<svg xmlns="http://www.w3.org/2000/svg" viewBox="0 0 128 128"><defs><style>.cls-1{fill:#fff;}</style></defs><title>Recurso 10</title><g id="Capa_2" data-name="Capa 2"><g id="Capa_1-2" data-name="Capa 1"><path class="cls-1" d="M64,3.52A60.48,60.48,0,1,0,124.48,64,60.55,60.55,0,0,0,64,3.52M64,128A64,64,0,0,1,18.74,18.75a64,64,0,1,1,90.51,90.51A63.59,63.59,0,0,1,64,128"/><path class="cls-1" d="M64,3.52A60.48,60.48,0,1,0,124.48,64,60.55,60.55,0,0,0,64,3.52M64,128A64,64,0,0,1,18.74,18.75a64,64,0,1,1,90.51,90.51A63.59,63.59,0,0,1,64,128"/><path class="cls-1" d="M80.07,97.62a1.23,1.23,0,0,1-1.23,1.23H49.16a1.23,1.23,0,0,1-1.23-1.23V36.18a.81.81,0,0,1,.81-.81h30.1a1.23,1.23,0,0,1,1.23,1.23ZM58.76,29.15H69.24v2.7H58.76Zm20.08,2.7H72.76V28.41A2.77,2.77,0,0,0,70,25.63H58a2.78,2.78,0,0,0-2.78,2.78v3.44h-6.5a4.34,4.34,0,0,0-4.33,4.33V97.62a4.75,4.75,0,0,0,4.75,4.75H78.84a4.75,4.75,0,0,0,4.75-4.75v-61a4.75,4.75,0,0,0-4.75-4.75"/><polygon class="cls-1" points="58.08 49.19 58.08 46.56 62.62 46.56 62.62 41.89 65.38 41.89 65.38 46.56 69.92 46.56 69.92 49.19 65.38 49.19 65.38 54.19 62.62 54.19 62.62 49.19 58.08 49.19"/><rect class="cls-1" x="58.08" y="89.26" width="11.85" height="2.63"/></g></g></svg>