<svg xmlns="http://www.w3.org/2000/svg" viewBox="0 0 128 128"><defs><style>.cls-1{fill:#fff;}</style></defs><title>Recurso 9</title><g id="Capa_2" data-name="Capa 2"><g id="Capa_1-2" data-name="Capa 1"><rect class="cls-1" x="76.08" y="49.94" width="3.52" height="44.02"/><rect class="cls-1" x="48.5" y="49.94" width="3.52" height="44.02"/><rect class="cls-1" x="66.88" y="49.94" width="3.52" height="44.02"/><rect class="cls-1" x="57.69" y="49.94" width="3.52" height="44.02"/><path class="cls-1" d="M85.11,95.49a3.46,3.46,0,0,1-3.45,3.45H46.34a3.46,3.46,0,0,1-3.45-3.45V45H85.11ZM39.38,38.4A1.39,1.39,0,0,1,40.77,37H87.23a1.39,1.39,0,0,1,1.39,1.39v3.09H39.38Zm17-8.25a1.09,1.09,0,0,1,1.09-1.09h13a1.09,1.09,0,0,1,1.09,1.09v3.34H56.43ZM92.14,38.4a4.91,4.91,0,0,0-4.91-4.91H75.09V30.15a4.62,4.62,0,0,0-4.61-4.61h-13a4.62,4.62,0,0,0-4.61,4.61v3.34H40.77a4.91,4.91,0,0,0-4.91,4.91V45h3.51V95.49a7,7,0,0,0,7,7H81.66a7,7,0,0,0,7-7V45h3.51Z"/><path class="cls-1" d="M64,3.52A60.48,60.48,0,1,0,124.48,64,60.55,60.55,0,0,0,64,3.52M64,128A64,64,0,0,1,18.74,18.75a64,64,0,1,1,90.51,90.51A63.59,63.59,0,0,1,64,128"/></g></g></svg>