<svg xmlns="http://www.w3.org/2000/svg" viewBox="0 0 443.65 470.62"><defs><style>.cls-1{fill:#06222e;}</style></defs><title>Recurso 1</title><g id="Capa_2" data-name="Capa 2"><g id="Capa_1-2" data-name="Capa 1"><path class="cls-1" d="M203,0l-8.44,8.37,29.64,30.37c-2.72-.1-5.45-.16-8.19-.16-57.6-.09-110.9,21.56-152.75,63.27A214.2,214.2,0,0,0,0,254.6a216.72,216.72,0,0,0,9.87,64.86l11.41-3.59a203.45,203.45,0,0,1-9.4-61.27C11.88,142,103.46,50.46,216,50.46q4,0,8,.17L194.66,79.55,202.87,88l44-43Z"/><path class="cls-1" d="M440.55,356.33l-39.87,10.5A216.22,216.22,0,0,0,264.37,44L261.7,55.61c90.65,20.8,158.46,102.12,158.46,199a202.94,202.94,0,0,1-30.69,107.53l-11.21-42-11.44,2.95,16.12,60.71,60.71-16.1Z"/><path class="cls-1" d="M368,390.78a203.69,203.69,0,0,1-152,68c-78.51,0-146.79-44.56-180.93-109.7l41.83,11.55,3.24-11.36-60.5-16.8L2.85,393,14.19,396l11.16-39.7a216.85,216.85,0,0,0,37.92,51,216,216,0,0,0,305.5,0q4.2-4.2,8.12-8.58Z"/><polygon class="cls-1" points="119.51 210.2 119.51 288.6 162.21 288.6 162.21 298.99 108.36 298.99 108.36 210.2 119.51 210.2"/><path class="cls-1" d="M204.79,300.75a40.11,40.11,0,0,1-13.21-2.2,29.92,29.92,0,0,1-11.21-6.95,30.42,30.42,0,0,1-6.07-7.76,44.62,44.62,0,0,1-3.69-8.95,52.88,52.88,0,0,1-1.88-9.84c-.34-3.42-.5-6.88-.5-10.39a103.13,103.13,0,0,1,.5-10.33,52.77,52.77,0,0,1,1.88-9.77,43.17,43.17,0,0,1,3.69-8.89,30.86,30.86,0,0,1,6.07-7.7,32,32,0,0,1,11.21-7.14,37.14,37.14,0,0,1,13.21-2.38,35.66,35.66,0,0,1,12.53,2.19,34,34,0,0,1,10.39,6.07A29.22,29.22,0,0,1,237.86,238h-11.4a19.82,19.82,0,0,0-2-7.76,19.34,19.34,0,0,0-4.64-6,20.76,20.76,0,0,0-6.76-3.88,24.5,24.5,0,0,0-8.27-1.38,25,25,0,0,0-9.2,1.69,21.16,21.16,0,0,0-7.58,5.07,23.22,23.22,0,0,0-4.38,6.45,37.84,37.84,0,0,0-2.5,7.39,46.9,46.9,0,0,0-1.13,7.7q-.25,3.89-.25,7.39T180,262a46.7,46.7,0,0,0,1.13,7.63,37.84,37.84,0,0,0,2.5,7.39,23.22,23.22,0,0,0,4.38,6.45,20.84,20.84,0,0,0,7.7,5.08,25.57,25.57,0,0,0,9.08,1.69q9.53,0,15.35-5.33t6.45-14.21H238A31.35,31.35,0,0,1,234.85,283a30.32,30.32,0,0,1-7.26,9.52,32.34,32.34,0,0,1-10.4,6.08,36.15,36.15,0,0,1-12.4,2.13"/><path class="cls-1" d="M302.6,274H264.28l-8.89,25H244l32.94-88.79h13.28L323.27,299H311.62Zm-3.88-10.53-15.4-42.82L268,263.42Z"/></g></g></svg>